<?xml version="1.0" encoding="UTF-8" standalone="no"?>
<svg
   xmlns:dc="http://purl.org/dc/elements/1.1/"
   xmlns:cc="http://creativecommons.org/ns#"
   xmlns:rdf="http://www.w3.org/1999/02/22-rdf-syntax-ns#"
   xmlns:svg="http://www.w3.org/2000/svg"
   xmlns="http://www.w3.org/2000/svg"
   id="svg39"
   version="1.1"
   viewBox="0 0 264 88"
   height="88"
   width="264">
  <metadata
     id="metadata45">
    <rdf:RDF>
      <cc:Work
         rdf:about="">
        <dc:format>image/svg+xml</dc:format>
        <dc:type
           rdf:resource="http://purl.org/dc/dcmitype/StillImage" />
        <dc:title>default-skin 2</dc:title>
      </cc:Work>
    </rdf:RDF>
  </metadata>
  <defs
     id="defs43" />
  <title
     id="title2">default-skin 2</title>
  <path
     id="Shape"
     d="m 67.002,59.5 v 3.768 C 60.695,64.108 57.818,69.018 57,73 59.22,70.17 62.564,67.902 67.002,67.902 V 71.5 L 73,65.585 Z"
     style="fill:#ffffff;fill-rule:evenodd" />
  <g
     style="fill:#ffffff;fill-rule:evenodd"
     id="g7">
    <path
       id="path5"
       d="m 13,29 v -5 h 2 v 3 h 3 v 2 z m 0,-14 h 5 v 2 h -3 v 3 h -2 z m 18,0 v 5 h -2 v -3 h -3 v -2 z m 0,14 h -5 v -2 h 3 v -3 h 2 z" />
  </g>
  <g
     style="fill:#ffffff;fill-rule:evenodd"
     id="g11">
    <path
       id="path9"
       d="m 62,24 v 5 h -2 v -3 h -3 v -2 z m 0,-4 h -5 v -2 h 3 v -3 h 2 z m 8,0 v -5 h 2 v 3 h 3 v 2 z m 0,4 h 5 v 2 h -3 v 3 h -2 z" />
  </g>
  <path
     id="path13"
     d="M 20.586,66 14.93,60.344 16.344,58.93 22,64.586 27.656,58.93 29.07,60.344 23.414,66 29.07,71.656 27.656,73.07 22,67.414 16.344,73.07 14.93,71.656 Z"
     style="fill:#ffffff;fill-rule:evenodd" />
  <path
     id="path15"
     d="m 108.09738,65.891437 -2.03999,-1.748574 c 1.38784,-1.589364 1.3957,-1.596523 4.44849,-5.142894 -2.91228,-3.313711 -2.89516,-3.3306 -4.44849,-5.142833 L 108.09738,52.179419 114.05739,59 Z"
     style="fill:#ffffff;fill-rule:evenodd;stroke-width:1.14285851" />
  <path
     id="path17"
     d="m 155.5635,65.896657 2.04,-1.748571 c -1.49112,-1.796968 -1.49059,-1.799812 -4.33482,-5.142858 3.02761,-3.609572 3.02493,-3.60229 4.33482,-5.142857 l -2.04,-1.677714 -5.96,6.820571 z"
     style="fill:#ffffff;fill-rule:evenodd;stroke-width:1.14285719" />
  <g
     id="g23"
     style="fill:none;fill-rule:evenodd">
    <path
       style="fill:#ffffff"
       d="m 160.957,28.543 -3.25,-3.25 -1.413,1.414 3.25,3.25 z"
       id="Rectangle-11" />
    <path
       style="stroke:#ffffff;stroke-width:1.5"
       id="Oval-1"
       d="m 152.5,27 c 3.038,0 5.5,-2.462 5.5,-5.5 0,-3.038 -2.462,-5.5 -5.5,-5.5 -3.038,0 -5.5,2.462 -5.5,5.5 0,3.038 2.462,5.5 5.5,5.5 z" />
    <path
       style="fill:#ffffff"
       id="path21"
       d="m 150,21 h 5 v 1 h -5 z" />
  </g>
  <g
     id="g33"
     style="fill:none;fill-rule:evenodd">
    <path
       style="fill:#ffffff"
       id="path25"
       d="m 116.957,28.543 -1.414,1.414 -3.25,-3.25 1.414,-1.414 z" />
    <path
       style="stroke:#ffffff;stroke-width:1.5"
       id="path27"
       d="m 108.5,27 c 3.038,0 5.5,-2.462 5.5,-5.5 0,-3.038 -2.462,-5.5 -5.5,-5.5 -3.038,0 -5.5,2.462 -5.5,5.5 0,3.038 2.462,5.5 5.5,5.5 z" />
    <path
       style="fill:#ffffff"
       id="path29"
       d="m 106,21 h 5 v 1 h -5 z" />
    <path
       style="fill:#ffffff"
       id="path31"
       d="m 109.043,19.008 -0.085,5 -1,-0.017 0.085,-5 z" />
  </g>
</svg>
