<?xml version="1.0" encoding="utf-8"?>
<!-- Generator: Adobe Illustrator 22.1.0, SVG Export Plug-In . SVG Version: 6.00 Build 0)  -->
<svg version="1.1" id="Camada_1" xmlns="http://www.w3.org/2000/svg" xmlns:xlink="http://www.w3.org/1999/xlink" x="0px" y="0px"
	 viewBox="0 0 412.2 228.3" style="enable-background:new 0 0 412.2 228.3;" xml:space="preserve">
<style type="text/css">
	.st0{fill:#A5CDD7;}
	.st1{fill:#7EB8C5;}
	.st2{fill:#57A2B1;}
	.st3{fill:#1F2F56;}
</style>
<g>
	<g>
		<path class="st0" d="M304.7,87.1c7,1.8,14.4,4.5,22.3,8.1c2.2,1,4.2,2.1,6.1,3.1c16.1-17.9,17.9-34.7,6.6-46.1l0,0l0,0
			c-11.3-11.3-28.1-9.5-46.1,6.6c1,1.9,2,3.8,3,5.9C300.2,72.7,302.9,80.1,304.7,87.1z"/>
		<path class="st1" d="M259.3,112.2c-3.3,11.2-3.7,19.9-3.7,24.1c4.2,0,12.9-0.4,24.1-3.7c-3.5-2.7-7.2-6-10.8-9.8
			C265.2,119.3,262,115.7,259.3,112.2z"/>
		<path class="st0" d="M272.8,83.4c4.5-6.8,10.1-13.9,17.2-21c1.2-1.2,2.4-2.4,3.6-3.4c-11.3-20.2-26.1-27.1-40.3-20.5l0,0l0,0
			c-15.5,7.2-19.1,25.4-7.6,50.2c0.1,0.2,0.2,0.4,0.3,0.6c-0.1-0.3-0.2-0.6-0.3-0.9C250,86.7,259.5,83.8,272.8,83.4z"/>
		<path class="st0" d="M333.1,98.4c-1.1,1.2-2.3,2.4-3.5,3.7c-7.1,7.1-14.3,12.8-21.2,17.3c-0.5,13.1-3.4,22.5-4.9,26.8
			c-0.3-0.1-0.6-0.2-0.9-0.3c0.2,0.1,0.4,0.2,0.6,0.3c24.7,11.5,42.9,7.9,50.2-7.6l0,0l0,0C360,124.4,353.1,109.6,333.1,98.4z"/>
		<path class="st1" d="M245.7,88.3c0.1,0.3,0.2,0.6,0.3,0.9c1.8,4.6,5.6,13.3,13.3,23c0-0.2,0.1-0.3,0.1-0.5
			c2.5-8.4,6.6-18.1,13.3-28.4C259.5,83.8,250,86.7,245.7,88.3z"/>
		<path class="st2" d="M304.7,87.1c-12.1-3.2-22.9-4-31.9-3.7c-6.7,10.3-10.8,20-13.3,28.4c0,0.2-0.1,0.3-0.1,0.5
			c2.7,3.4,5.9,7,9.6,10.7c3.7,3.8,7.3,7,10.8,9.8c0.2,0,0.3-0.1,0.5-0.1c8.3-2.5,18-6.6,28.1-13.2
			C308.8,110.2,307.9,99.4,304.7,87.1z"/>
		<path class="st1" d="M304.7,87.1c-1.8-7-4.5-14.4-8.1-22.3c-1-2.1-2-4.1-3-5.9c-1.2,1.1-2.4,2.2-3.6,3.4
			c-7.1,7.1-12.7,14.2-17.2,21C281.8,83.1,292.6,83.9,304.7,87.1z"/>
		<path class="st1" d="M308.4,119.3c-10.2,6.6-19.8,10.7-28.1,13.2c-0.2,0.1-0.3,0.1-0.5,0.1c9.7,7.6,18.2,11.4,22.8,13.1l0,0l0,0
			l0,0c0.3,0.1,0.6,0.2,0.9,0.3C305.1,141.8,308,132.5,308.4,119.3z"/>
		<path class="st1" d="M329.6,102c1.2-1.2,2.4-2.4,3.5-3.7l0,0l0,0c-1.9-1.1-4-2.1-6.1-3.1c-7.8-3.6-15.3-6.3-22.3-8.1
			c3.2,12.2,4.1,23.1,3.7,32.2C315.3,114.8,322.5,109.2,329.6,102z"/>
	</g>
	<g>
		<g>
			<path class="st3" d="M130.1,157.7h-6.3c-0.2,0-0.3,0.1-0.3,0.2v5.3v1.4v29c0,0.2,0.1,0.2,0.3,0.2h6.3c0.2,0,0.3-0.1,0.3-0.2
				v-31.4v-3v-1.3C130.4,157.8,130.3,157.7,130.1,157.7z"/>
			<path class="st3" d="M215.5,170.9c0-3.5,2.7-7,7.1-7h10c0.2,0,0.3-0.1,0.3-0.3V158c0-0.2-0.1-0.3-0.3-0.3h-10
				c-8.9,0.6-11.8,6.5-13.1,11.4l0,0c-0.1,0.1-0.1,3.4-0.1,6.8c0.1,2.7-0.2,5.2,0.3,7.2c1.5,7,7,10.9,12.9,10.9h10
				c0.2,0,0.3-0.1,0.3-0.3V188c0-0.2-0.1-0.3-0.3-0.3c0,0-5,0-10,0s-7.1-3.9-7.1-6.9S215.5,175.9,215.5,170.9z"/>
			<path class="st3" d="M137.4,157.7c0,0,11.9,0,16.3,0c5.3,0,12.1,5.3,12.1,12.1v23.9c0,0.2-0.1,0.3-0.3,0.3h-6.3
				c-0.2,0-0.3-0.1-0.3-0.3V172c0-4.1-3.1-8.2-8.2-8.1h-6.8v29.9c0,0.2-0.1,0.3-0.3,0.3h-6.2c-0.2,0-0.3-0.1-0.3-0.3V158
				C137.1,157.8,137.2,157.7,137.4,157.7z"/>
			<g>
				<path class="st3" d="M67.1,157.7H54.8c-0.1,0-0.2,0.1-0.2,0.2v5.8c0,0.1,0.1,0.2,0.2,0.2h10.5v29.8c0,0.1,0.1,0.2,0.2,0.2H72
					c0.1,0,0.2-0.1,0.2-0.2v-31.6c0-1.1-0.2-2.1-0.7-2.8C70.9,158.2,69.4,157.7,67.1,157.7z"/>
				<path class="st3" d="M82.7,157.7H63.8v0.2c0.5,0,1,0.2,1.4,0.5c0.3,0.2,0.6,0.5,0.7,0.9c0.1,0.3,0.2,0.6,0.2,0.9
					c0,0.2,0,0.3,0,0.5c0,1.5,0,3.2,0,3.2h16.5c0.1,0,0.2-0.1,0.2-0.2v-5.8C82.9,157.8,82.8,157.7,82.7,157.7z"/>
			</g>
			<path class="st3" d="M275.5,157.7c0,0,11.9,0,16.3,0c5.3,0,12.1,5.3,12.1,12.1v23.9c0,0.2-0.1,0.3-0.3,0.3h-6.3
				c-0.2,0-0.3-0.1-0.3-0.3V172c0-4.1-3.1-8.2-8.2-8.1H282v29.9c0,0.2-0.1,0.3-0.3,0.3h-6.2c-0.2,0-0.3-0.1-0.3-0.3V158
				C275.2,157.8,275.3,157.7,275.5,157.7z"/>
			<path class="st3" d="M268.6,167.1c0-0.7-0.1-1.8-0.4-3.4c-1.2-3.9-3.9-5.9-8-5.9h-17.4c-0.2,0-0.3,0.1-0.3,0.3v5.6
				c0,0.2,0.1,0.3,0.3,0.3c0,0,13.2,0,16.3,0s3.6,4.8,0,5.2c-3,0.4-6,0.8-7.9,0.9c-6.8,0.4-11.4,5.2-11.9,11.3v0.4
				c0,1.9,0.4,3.7,1.1,5.5c1.7,3.9,5.5,6.8,11.3,6.8h16.5c0.2,0,0.3-0.1,0.3-0.3v-26.1l0,0C268.6,167.4,268.6,167.2,268.6,167.1z
				 M251.4,187.7c-7.9,0-7.6-11.7,0-11.7s8.7-0.7,10.2-1v12.7C261.7,187.7,258.4,187.7,251.4,187.7z"/>
			<path class="st3" d="M117.5,167.1c0-0.7-0.1-1.8-0.4-3.4c-1.2-3.9-3.9-5.9-8-5.9H91.8c-0.2,0-0.3,0.1-0.3,0.3v5.6
				c0,0.2,0.1,0.3,0.3,0.3c0,0,13.2,0,16.3,0s3.6,4.8,0,5.2c-3,0.4-6,0.8-7.9,0.9c-6.8,0.4-11.4,5.2-11.9,11.3v0.4
				c0,1.9,0.4,3.7,1.1,5.5c1.7,3.9,5.5,6.8,11.3,6.8h16.5c0.2,0,0.3-0.1,0.3-0.3v-26.1l0,0C117.5,167.4,117.5,167.2,117.5,167.1z
				 M100.4,187.7c-7.9,0-7.6-11.7,0-11.7s8.7-0.7,10.2-1v12.7C110.6,187.7,107.4,187.7,100.4,187.7z"/>
			<path class="st3" d="M202.3,167.1c0-0.7-0.1-1.8-0.4-3.4c-1.2-3.9-3.9-5.9-8-5.9h-17.4c-0.2,0-0.3,0.1-0.3,0.3v5.6
				c0,0.2,0.1,0.3,0.3,0.3c0,0,13.2,0,16.3,0s3.6,4.8,0,5.2c-3,0.4-6,0.8-7.9,0.9c-6.8,0.4-11.4,5.2-11.9,11.3v0.4
				c0,1.9,0.4,3.7,1.1,5.5c1.7,3.9,5.5,6.8,11.3,6.8H202c0.2,0,0.3-0.1,0.3-0.3v-26.1l0,0C202.3,167.4,202.3,167.2,202.3,167.1z
				 M185.1,187.7c-7.9,0-7.6-11.7,0-11.7s8.7-0.7,10.2-1v12.7C195.4,187.7,192.1,187.7,185.1,187.7z"/>
		</g>
	</g>
</g>
<g id="Camada_3">
</g>
<g id="Camada_2_1_">
</g>
</svg>
