<?xml version="1.0" encoding="UTF-8" standalone="no"?>
<svg
   height="63.328629"
   width="368.00058"
   version="1.1"
   viewBox="0 0 368.00058 63.328629"
   data-name="Camada 1"
   id="Camada_1"
   xml:space="preserve"
   xmlns="http://www.w3.org/2000/svg"
   xmlns:svg="http://www.w3.org/2000/svg"
   xmlns:rdf="http://www.w3.org/1999/02/22-rdf-syntax-ns#"
   xmlns:cc="http://creativecommons.org/ns#"
   xmlns:dc="http://purl.org/dc/elements/1.1/"><metadata
     id="metadata47"><rdf:RDF><cc:Work
         rdf:about=""><dc:format>image/svg+xml</dc:format><dc:type
           rdf:resource="http://purl.org/dc/dcmitype/StillImage" /><dc:title>marca webPrancheta 1</dc:title></cc:Work></rdf:RDF></metadata><defs
     id="defs4"><style
       id="style2">.cls-1{fill:#a4ccd6;}.cls-2{fill:#7db6c4;}.cls-3{fill:#56a0b0;}.cls-4{fill:#1f2f56;}</style></defs><title
     id="title6">marca webPrancheta 1</title><path
     style="fill:#ffffff"
     id="path26"
     d="m 87.13269,12.421908 h -7.31 a 0.29,0.29 0 0 0 -0.32,0.28 v 41.25 c 0,0.19 0.11,0.28 0.32,0.28 h 7.31 c 0.21,0 0.32,-0.09 0.32,-0.28 v -41.25 c 0,-0.16 -0.11,-0.25 -0.32,-0.28 z"
     class="cls-4" /><path
     style="fill:#ffffff"
     id="path28"
     d="m 185.69269,27.661908 a 8,8 0 0 1 8.15,-8.09 h 11.56 a 0.28,0.28 0 0 0 0.32,-0.32 v -6.51 c 0,-0.18 -0.11,-0.29 -0.32,-0.32 h -11.56 c -10.3,0.7 -13.58,7.54 -15.08,13.15 v 0 c -0.11,0.11 -0.12,3.93 -0.12,7.88 0.08,3.06 -0.2,6 0.29,8.26 1.74,8 8,12.52 14.92,12.52 h 11.55 a 0.28,0.28 0 0 0 0.32,-0.32 v -6.52 c 0,-0.19 -0.11,-0.29 -0.32,-0.32 h -11.49 a 7.92,7.92 0 0 1 -8.23,-8 c 0,-3.43 0.01,-5.68 0.01,-11.41 z"
     class="cls-4" /><path
     style="fill:#ffffff"
     id="path30"
     d="m 95.56269,12.421908 h 18.78 c 6.13,0 14,6.1 14,13.94 v 27.55 a 0.28,0.28 0 0 1 -0.32,0.32 h -7.31 a 0.28,0.28 0 0 1 -0.32,-0.32 v -25.09 a 9.24,9.24 0 0 0 -9.47,-9.4 h -7.92 v 34.5 a 0.28,0.28 0 0 1 -0.32,0.32 h -7.15 a 0.28,0.28 0 0 1 -0.32,-0.32 v -41.18 c 0.05,-0.21 0.16,-0.32 0.35,-0.32 z"
     class="cls-4" /><path
     style="fill:#ffffff"
     id="path32"
     d="M 14.45269,12.421908 H 0.23268961 c -0.13,0 -0.21,0.08 -0.23,0.23 v 6.7 a 0.2,0.2 0 0 0 0.23,0.23 H 12.36269 v 34.42 a 0.2,0.2 0 0 0 0.22,0.23 h 7.5 a 0.2,0.2 0 0 0 0.22,-0.23 v -36.51 a 6.19,6.19 0 0 0 -0.79,-3.27 q -1.09,-1.8 -5.06,-1.8 z"
     class="cls-4" /><path
     style="fill:#ffffff"
     id="path34"
     d="m 32.43269,12.421908 h -21.8 v 0.23 a 2.71,2.71 0 0 1 1.6,0.53 2.35,2.35 0 0 1 0.85,1 2.7,2.7 0 0 1 0.26,1.08 5.31,5.31 0 0 1 0,0.6 c 0,1.76 0,3.69 0,3.69 h 19.09 a 0.2,0.2 0 0 0 0.23,-0.23 v -6.7 c 0,-0.1 -0.08,-0.18 -0.23,-0.2 z"
     class="cls-4" /><path
     style="fill:#ffffff"
     id="path36"
     d="m 255.00269,12.421908 h 18.78 c 6.13,0 14,6.1 14,13.94 v 27.55 a 0.28,0.28 0 0 1 -0.32,0.32 h -7.31 a 0.28,0.28 0 0 1 -0.32,-0.32 v -25.09 a 9.24,9.24 0 0 0 -9.47,-9.4 h -7.86 v 34.5 a 0.28,0.28 0 0 1 -0.32,0.32 h -7.18 a 0.28,0.28 0 0 1 -0.32,-0.32 v -41.18 c -0.01,-0.21 0.09,-0.32 0.32,-0.32 z"
     class="cls-4" /><path
     style="fill:#ffffff"
     id="path38"
     d="m 247.00269,23.231908 a 28,28 0 0 0 -0.48,-4 q -2.11,-6.83 -9.22,-6.84 h -20 c -0.19,0 -0.29,0.11 -0.32,0.32 v 6.55 a 0.28,0.28 0 0 0 0.32,0.32 h 18.87 c 3.61,0 4.11,5.53 0,6 -3.47,0.46 -6.89,0.89 -9.13,1 -7.85,0.47 -13.18,6 -13.71,13.05 v 0.45 a 16.8,16.8 0 0 0 1.27,6.36 c 2,4.56 6.33,7.82 13,7.82 h 19.08 a 0.28,0.28 0 0 0 0.32,-0.32 v -30.18 0 c 0,-0.18 0,-0.35 0,-0.53 z m -19.79,23.85 c -9.15,0 -8.78,-13.48 0,-13.48 8.78,0 10,-0.86 11.82,-1.13 v 14.61 z"
     class="cls-4" /><path
     style="fill:#ffffff"
     id="path40"
     d="m 72.64269,23.231908 a 28,28 0 0 0 -0.48,-4 q -2.11,-6.83 -9.22,-6.84 h -20 c -0.19,0 -0.29,0.11 -0.32,0.32 v 6.55 a 0.28,0.28 0 0 0 0.32,0.32 h 18.84 c 3.61,0 4.11,5.53 0,6 -3.47,0.46 -6.89,0.89 -9.13,1 -7.85,0.47 -13.18,6 -13.71,13.05 v 0.45 a 16.8,16.8 0 0 0 1.27,6.36 c 2,4.56 6.33,7.82 13,7.82 h 19.08 a 0.28,0.28 0 0 0 0.32,-0.32 v -30.18 0 c 0.02,-0.18 0.03,-0.35 0.03,-0.53 z m -19.77,23.85 c -9.15,0 -8.78,-13.48 0,-13.48 8.78,0 10,-0.86 11.82,-1.13 v 14.61 z"
     class="cls-4" /><path
     style="fill:#ffffff"
     id="path42"
     d="m 170.46269,23.231908 a 28,28 0 0 0 -0.48,-4 q -2.11,-6.83 -9.22,-6.84 h -20 c -0.19,0 -0.29,0.11 -0.32,0.32 v 6.55 a 0.28,0.28 0 0 0 0.32,0.32 h 18.84 c 3.61,0 4.11,5.53 0,6 -3.47,0.46 -6.89,0.89 -9.13,1 -7.85,0.47 -13.18,6 -13.71,13.05 v 0.45 a 16.8,16.8 0 0 0 1.24,6.33 c 2,4.56 6.33,7.82 13,7.82 h 19.08 a 0.28,0.28 0 0 0 0.32,-0.32 v -30.15 0 c 0.05,-0.18 0.06,-0.35 0.06,-0.53 z m -19.77,23.85 c -9.15,0 -8.78,-13.48 0,-13.48 8.78,0 10,-0.86 11.82,-1.13 v 14.61 z"
     class="cls-4" /><path
     d="m 363.90571,54.283526 c -10e-4,0.0012 -0.002,0.0024 -0.002,0.0039 -10e-4,0.0012 -10e-4,0.0024 -0.002,0.0051 -3.06221,6.521523 -11.43432,7.684805 -23.12315,2.212023 0.7153,-3.445306 1.49293,-8.041168 1.61763,-11.282842 0.001,-0.0073 0,-0.01247 0,-0.02027 3.5815,-2.315117 7.28519,-5.213143 10.99395,-8.836638 -0.16055,-0.0878 -0.13249,-0.07381 0,0 9.76447,5.304779 13.34596,11.89503 10.51667,17.91891 M 350.14365,34.751964 c 0,0 -10e-4,0 -10e-4,-0.0012 -2.62823,2.53542 -5.2259,4.674896 -7.74463,6.480912 -0.10051,-3.01894 -0.44548,-6.324243 -1.15948,-9.875187 2.81784,0.856551 5.79225,1.968926 8.90411,3.394395 0.065,-0.06235 0.046,-0.04454 0,0 0,0.0012 10e-4,0.0012 10e-4,0.0012 M 335.9652,15.520954 c 8.54011,-7.8960765 16.20328,-9.2171818 21.03331,-4.402407 10e-4,0 0.002,0.0012 0.004,0.0024 0.001,0.0012 0.001,0.0024 0.002,0.0039 4.84788,4.830048 3.52932,12.532672 -4.40748,21.132572 -0.039,0.042 -0.0471,0.04964 0,0 -0.0483,-0.02299 -4.62778,-2.402937 -12.18913,-4.496595 -0.56764,-3.137301 -3.90349,-11.447025 -4.44315,-12.239942 m 3.32442,27.804282 c -4.12241,2.596389 -7.96607,4.320953 -11.29684,5.468963 -1.19128,-0.917645 -2.29602,-1.839109 -3.32185,-2.755484 v -0.0012 c -1.70675,-1.667288 -3.46186,-3.606945 -5.2055,-5.859697 1.1518,-3.363848 2.8891,-7.243163 5.50711,-11.406296 3.59677,-0.28127 12.73632,1.449653 12.76052,1.626564 0.26614,0.03948 1.73854,9.264274 1.55656,12.92722 m -1.45985,11.71812 c -0.38694,0.03156 -5.15457,-2.635848 -6.80916,-4.058769 v -0.0012 c 2.55821,-0.968553 8.1112,-3.808034 8.1112,-3.808034 0,0 0.007,-0.0051 0.0116,-0.0073 0,0.0066 -0.77258,5.359511 -1.31473,7.87572 m -20.6248,-3.987736 c 0.0752,-1.344014 0.30551,-3.715127 1.06402,-6.811703 0.81329,0.986372 4.71423,4.869506 5.72226,5.73369 -3.07113,0.75983 -5.43079,0.995285 -6.78628,1.078013 m -4.0879,-20.851368 c 2.58111,-0.553643 5.81388,-1.155648 8.02845,-1.313468 0,-0.0012 10e-4,-0.0024 10e-4,-0.0039 0,0.0012 -10e-4,0.0024 -10e-4,0.0039 -1.64439,2.858572 -2.92476,5.612782 -3.92132,8.197718 -1.4,-2.056747 -4.0995,-6.870249 -4.10713,-6.88425 m 0.7509,-26.1980829 0.002,-0.0025 0.004,-0.00124 c 6.09386,-2.843301 12.74648,0.8578293 18.05382,10.8602919 -3.59935,3.648948 -6.49099,7.292799 -8.80863,10.819565 0,0.0012 0,0.0024 -10e-4,0.0024 10e-4,0 10e-4,-0.0012 10e-4,-0.0024 -3.28495,0.09928 -7.41628,0.945643 -11.4445,1.610016 -5.65224,-11.958667 -4.34895,-20.235296 2.19292,-23.2860544 m 22.93098,22.9004144 c -3.5064,-0.721646 -6.77353,-1.085647 -9.76447,-1.204013 1.79331,-2.507301 3.91366,-5.090962 6.42225,-7.703898 -0.004,-0.0101 2.5022,6.090063 3.34222,8.907911 m 18.97526,6.991157 c 8.86592,-9.959188 9.75173,-18.783093 3.63367,-24.935522 l -0.007,-0.00781 c -6.12453,-6.1575837 -15.23353,-5.2081212 -24.98273,3.520331 v 0.0012 -0.0012 C 328.35152,1.5193873 320.33962,-2.2657421 312.64208,1.2992037 l -0.004,0.00255 c -10e-4,0 -0.004,0.00127 -0.004,0.00254 -10.37533,4.3502247 -11.44952,18.8696463 3.16024,39.9844033 h 10e-4 c -10e-4,0 -10e-4,0.0012 -10e-4,0.0012 -1.78565,6.041697 -2.0262,10.752105 -2.03127,13.064676 2.28327,0.0066 7.00641,-0.209997 13.08375,-1.974019 23.81171,16.194345 36.18145,11.891207 39.86859,3.29894 0,-0.0012 10e-4,-0.0024 0.002,-0.0051 0,-0.0012 10e-4,-0.0039 0.002,-0.0051 3.59166,-7.65044 -0.46582,-16.135795 -10.94559,-21.771489"
     fill="#ffffff"
     id="path1"
     style="stroke-width:1.27274" /></svg>
