<?xml version="1.0" encoding="UTF-8" standalone="no"?>
<!-- Created with Inkscape (http://www.inkscape.org/) -->

<svg
   xmlns:dc="http://purl.org/dc/elements/1.1/"
   xmlns:cc="http://creativecommons.org/ns#"
   xmlns:rdf="http://www.w3.org/1999/02/22-rdf-syntax-ns#"
   xmlns:svg="http://www.w3.org/2000/svg"
   xmlns="http://www.w3.org/2000/svg"
   xmlns:sodipodi="http://sodipodi.sourceforge.net/DTD/sodipodi-0.dtd"
   xmlns:inkscape="http://www.inkscape.org/namespaces/inkscape"
   width="4.4mm"
   height="4.3mm"
   viewBox="0 0 17.510353 17.55353"
   version="1.1"
   id="svg1507"
   inkscape:version="0.92.2 (5c3e80d, 2017-08-06)"
   sodipodi:docname="tainacan_logo_symbol.svg">
  <defs
     id="defs1501" />
  <sodipodi:namedview
     id="base"
     pagecolor="#ffffff"
     bordercolor="#666666"
     borderopacity="1.0"
     inkscape:pageopacity="0.0"
     inkscape:pageshadow="2"
     inkscape:zoom="0.35"
     inkscape:cx="-715.481"
     inkscape:cy="-46.827981"
     inkscape:document-units="mm"
     inkscape:current-layer="layer1"
     showgrid="false"
     fit-margin-top="0"
     fit-margin-left="0"
     fit-margin-right="0"
     fit-margin-bottom="0"
     inkscape:window-width="3200"
     inkscape:window-height="1678"
     inkscape:window-x="0"
     inkscape:window-y="66"
     inkscape:window-maximized="1" />
  <metadata
     id="metadata1504">
    <rdf:RDF>
      <cc:Work
         rdf:about="">
        <dc:format>image/svg+xml</dc:format>
        <dc:type
           rdf:resource="http://purl.org/dc/dcmitype/StillImage" />
        <dc:title></dc:title>
      </cc:Work>
    </rdf:RDF>
  </metadata>
  <g
     inkscape:label="Layer 1"
     inkscape:groupmode="layer"
     id="layer1"
     transform="translate(-75.911491,-118.8899)">
    <g
       id="g296"
       transform="matrix(0.35277777,0,0,-0.35277777,92.286729,133.9362)"
       style="fill:#ffffff;fill-opacity:1">
      <path
         d="m 0,0 c -0.001,-0.001 -0.002,-0.002 -0.002,-0.003 -0.001,-0.001 -0.001,-0.002 -0.002,-0.004 -2.406,-5.124 -8.984,-6.038 -18.168,-1.738 0.562,2.707 1.173,6.318 1.271,8.865 0.001,0.006 0,0.01 0,0.016 2.814,1.819 5.724,4.096 8.638,6.943 -0.126,0.069 -0.104,0.058 0,0 C -0.591,9.911 2.223,4.733 0,0 m -10.813,15.346 c 0,0 -10e-4,0 -10e-4,10e-4 -2.065,-1.992 -4.106,-3.673 -6.085,-5.092 -0.079,2.372 -0.35,4.969 -0.911,7.759 2.214,-0.673 4.551,-1.547 6.996,-2.667 0.051,0.049 0.036,0.035 0,0 0,-10e-4 10e-4,-10e-4 10e-4,-10e-4 m -11.14,15.11 v 0 c 6.71,6.204 12.731,7.242 16.526,3.459 10e-4,0 0.002,-10e-4 0.003,-0.002 0.001,-10e-4 0.001,-0.002 0.002,-0.003 3.809,-3.795 2.773,-9.847 -3.463,-16.604 -0.03,-0.033 -0.037,-0.039 0,0 -0.038,0.018 -3.636,1.888 -9.577,3.533 -0.446,2.465 -3.067,8.994 -3.491,9.617 M -19.341,8.61 v 0 C -22.58,6.57 -25.6,5.215 -28.217,4.313 c -0.936,0.721 -1.804,1.445 -2.61,2.165 v 0.001 c -1.341,1.31 -2.72,2.834 -4.09,4.604 0.905,2.643 2.27,5.691 4.327,8.962 2.826,0.221 10.007,-1.139 10.026,-1.278 0.209,-0.031 1.366,-7.279 1.223,-10.157 m -1.147,-9.207 c -0.304,-0.025 -4.05,2.071 -5.35,3.189 v 10e-4 c 2.01,0.761 6.373,2.992 6.373,2.992 0,0 0.007,0.004 0.01,0.006 0,-0.005 -0.607,-4.211 -1.033,-6.188 m -16.205,3.133 c 0.059,1.056 0.24,2.919 0.836,5.352 0.639,-0.775 3.704,-3.826 4.496,-4.505 -2.413,-0.597 -4.267,-0.782 -5.332,-0.847 m -3.212,16.383 v 0 c 2.028,0.435 4.568,0.908 6.308,1.032 0,0.001 0.001,0.002 0.001,0.003 0,-0.001 -0.001,-0.002 -0.001,-0.003 -1.292,-2.246 -2.298,-4.41 -3.081,-6.441 -1.1,1.616 -3.221,5.398 -3.227,5.409 m 0.59,20.584 0.002,0.002 0.003,10e-4 c 4.788,2.234 10.015,-0.674 14.185,-8.533 -2.828,-2.867 -5.1,-5.73 -6.921,-8.501 0,-0.001 0,-0.002 -10e-4,-0.002 10e-4,0 10e-4,0.001 10e-4,0.002 -2.581,-0.078 -5.827,-0.743 -8.992,-1.265 -4.441,9.396 -3.417,15.899 1.723,18.296 M -21.298,21.51 c -2.755,0.567 -5.322,0.853 -7.672,0.946 1.409,1.97 3.075,4 5.046,6.053 -0.004,0.008 1.966,-4.785 2.626,-6.999 m 14.909,-5.493 c 6.966,7.825 7.662,14.758 2.855,19.592 l -0.003,0.003 c -10e-4,10e-4 -0.002,0.002 -0.003,0.003 -4.812,4.838 -11.969,4.092 -19.629,-2.766 v -10e-4 10e-4 c -4.765,8.608 -11.06,11.582 -17.108,8.781 l -0.004,-0.002 c -10e-4,0 -0.003,-10e-4 -0.004,-0.002 -8.152,-3.418 -8.996,-14.826 2.483,-31.416 h 10e-4 c -10e-4,0 -10e-4,-0.001 -10e-4,-0.001 -1.403,-4.747 -1.592,-8.448 -1.596,-10.265 1.794,-0.005 5.505,0.165 10.28,1.551 18.709,-12.724 28.428,-9.343 31.325,-2.592 0,10e-4 0.001,0.002 0.002,0.004 0,10e-4 10e-4,0.003 0.002,0.004 2.822,6.011 -0.366,12.678 -8.6,17.106"
         style="fill:#ffffff;fill-opacity:1;fill-rule:nonzero;stroke:none;"
         id="path298"
         inkscape:connector-curvature="0" />
    </g>
  </g>
</svg>
