<?xml version="1.0" encoding="UTF-8" standalone="no"?>
<!-- Generator: Adobe Illustrator 22.1.0, SVG Export Plug-In . SVG Version: 6.00 Build 0)  -->

<svg
   version="1.1"
   id="Camada_1"
   x="0px"
   y="0px"
   viewBox="0 0 412.2 228.3"
   style="enable-background:new 0 0 412.2 228.3;"
   xml:space="preserve"
   xmlns="http://www.w3.org/2000/svg"
   xmlns:svg="http://www.w3.org/2000/svg"><defs
   id="defs20">
	
	
</defs>
<style
   type="text/css"
   id="style1">
	.st0{fill:#A5CDD7;}
	.st1{fill:#7EB8C5;}
	.st2{fill:#57A2B1;}
	.st3{fill:#1F2F56;}
</style>
<g
   id="g19"
   style="fill:#ffffff">
		<g
   id="g18"
   style="fill:#ffffff">
			<path
   class="st3"
   d="m 130.1,157.7 h -6.3 c -0.2,0 -0.3,0.1 -0.3,0.2 v 5.3 1.4 29 c 0,0.2 0.1,0.2 0.3,0.2 h 6.3 c 0.2,0 0.3,-0.1 0.3,-0.2 v -31.4 -3 -1.3 c 0,-0.1 -0.1,-0.2 -0.3,-0.2 z"
   id="path10"
   style="fill:#ffffff" />
			<path
   class="st3"
   d="m 215.5,170.9 c 0,-3.5 2.7,-7 7.1,-7 h 10 c 0.2,0 0.3,-0.1 0.3,-0.3 V 158 c 0,-0.2 -0.1,-0.3 -0.3,-0.3 h -10 c -8.9,0.6 -11.8,6.5 -13.1,11.4 v 0 c -0.1,0.1 -0.1,3.4 -0.1,6.8 0.1,2.7 -0.2,5.2 0.3,7.2 1.5,7 7,10.9 12.9,10.9 h 10 c 0.2,0 0.3,-0.1 0.3,-0.3 V 188 c 0,-0.2 -0.1,-0.3 -0.3,-0.3 0,0 -5,0 -10,0 -5,0 -7.1,-3.9 -7.1,-6.9 0,-3 0,-4.9 0,-9.9 z"
   id="path11"
   style="fill:#ffffff" />
			<path
   class="st3"
   d="m 137.4,157.7 c 0,0 11.9,0 16.3,0 5.3,0 12.1,5.3 12.1,12.1 v 23.9 c 0,0.2 -0.1,0.3 -0.3,0.3 h -6.3 c -0.2,0 -0.3,-0.1 -0.3,-0.3 V 172 c 0,-4.1 -3.1,-8.2 -8.2,-8.1 h -6.8 v 29.9 c 0,0.2 -0.1,0.3 -0.3,0.3 h -6.2 c -0.2,0 -0.3,-0.1 -0.3,-0.3 V 158 c 0,-0.2 0.1,-0.3 0.3,-0.3 z"
   id="path12"
   style="fill:#ffffff" />
			<g
   id="g14"
   style="fill:#ffffff">
				<path
   class="st3"
   d="M 67.1,157.7 H 54.8 c -0.1,0 -0.2,0.1 -0.2,0.2 v 5.8 c 0,0.1 0.1,0.2 0.2,0.2 h 10.5 v 29.8 c 0,0.1 0.1,0.2 0.2,0.2 H 72 c 0.1,0 0.2,-0.1 0.2,-0.2 v -31.6 c 0,-1.1 -0.2,-2.1 -0.7,-2.8 -0.6,-1.1 -2.1,-1.6 -4.4,-1.6 z"
   id="path13"
   style="fill:#ffffff" />
				<path
   class="st3"
   d="M 82.7,157.7 H 63.8 v 0.2 c 0.5,0 1,0.2 1.4,0.5 0.3,0.2 0.6,0.5 0.7,0.9 0.1,0.3 0.2,0.6 0.2,0.9 0,0.2 0,0.3 0,0.5 0,1.5 0,3.2 0,3.2 h 16.5 c 0.1,0 0.2,-0.1 0.2,-0.2 v -5.8 c 0.1,-0.1 0,-0.2 -0.1,-0.2 z"
   id="path14"
   style="fill:#ffffff" />
			</g>
			<path
   class="st3"
   d="m 275.5,157.7 c 0,0 11.9,0 16.3,0 5.3,0 12.1,5.3 12.1,12.1 v 23.9 c 0,0.2 -0.1,0.3 -0.3,0.3 h -6.3 c -0.2,0 -0.3,-0.1 -0.3,-0.3 V 172 c 0,-4.1 -3.1,-8.2 -8.2,-8.1 H 282 v 29.9 c 0,0.2 -0.1,0.3 -0.3,0.3 h -6.2 c -0.2,0 -0.3,-0.1 -0.3,-0.3 V 158 c 0,-0.2 0.1,-0.3 0.3,-0.3 z"
   id="path15"
   style="fill:#ffffff" />
			<path
   class="st3"
   d="m 268.6,167.1 c 0,-0.7 -0.1,-1.8 -0.4,-3.4 -1.2,-3.9 -3.9,-5.9 -8,-5.9 h -17.4 c -0.2,0 -0.3,0.1 -0.3,0.3 v 5.6 c 0,0.2 0.1,0.3 0.3,0.3 0,0 13.2,0 16.3,0 3.1,0 3.6,4.8 0,5.2 -3,0.4 -6,0.8 -7.9,0.9 -6.8,0.4 -11.4,5.2 -11.9,11.3 v 0.4 c 0,1.9 0.4,3.7 1.1,5.5 1.7,3.9 5.5,6.8 11.3,6.8 h 16.5 c 0.2,0 0.3,-0.1 0.3,-0.3 v -26.1 0 c 0.1,-0.3 0.1,-0.5 0.1,-0.6 z m -17.2,20.6 c -7.9,0 -7.6,-11.7 0,-11.7 7.6,0 8.7,-0.7 10.2,-1 v 12.7 c 0.1,0 -3.2,0 -10.2,0 z"
   id="path16"
   style="fill:#ffffff" />
			<path
   class="st3"
   d="m 117.5,167.1 c 0,-0.7 -0.1,-1.8 -0.4,-3.4 -1.2,-3.9 -3.9,-5.9 -8,-5.9 H 91.8 c -0.2,0 -0.3,0.1 -0.3,0.3 v 5.6 c 0,0.2 0.1,0.3 0.3,0.3 0,0 13.2,0 16.3,0 3.1,0 3.6,4.8 0,5.2 -3,0.4 -6,0.8 -7.9,0.9 -6.8,0.4 -11.4,5.2 -11.9,11.3 v 0.4 c 0,1.9 0.4,3.7 1.1,5.5 1.7,3.9 5.5,6.8 11.3,6.8 h 16.5 c 0.2,0 0.3,-0.1 0.3,-0.3 v -26.1 0 c 0,-0.3 0,-0.5 0,-0.6 z m -17.1,20.6 c -7.9,0 -7.6,-11.7 0,-11.7 7.6,0 8.7,-0.7 10.2,-1 v 12.7 c 0,0 -3.2,0 -10.2,0 z"
   id="path17"
   style="fill:#ffffff" />
			<path
   class="st3"
   d="m 202.3,167.1 c 0,-0.7 -0.1,-1.8 -0.4,-3.4 -1.2,-3.9 -3.9,-5.9 -8,-5.9 h -17.4 c -0.2,0 -0.3,0.1 -0.3,0.3 v 5.6 c 0,0.2 0.1,0.3 0.3,0.3 0,0 13.2,0 16.3,0 3.1,0 3.6,4.8 0,5.2 -3,0.4 -6,0.8 -7.9,0.9 -6.8,0.4 -11.4,5.2 -11.9,11.3 v 0.4 c 0,1.9 0.4,3.7 1.1,5.5 1.7,3.9 5.5,6.8 11.3,6.8 H 202 c 0.2,0 0.3,-0.1 0.3,-0.3 v -26.1 0 c 0,-0.3 0,-0.5 0,-0.6 z m -17.2,20.6 c -7.9,0 -7.6,-11.7 0,-11.7 7.6,0 8.7,-0.7 10.2,-1 v 12.7 c 0.1,0 -3.2,0 -10.2,0 z"
   id="path18"
   style="fill:#ffffff" />
		</g>
	</g>
<g
   id="Camada_3">
</g>
<g
   id="Camada_2_1_">
</g>
<style
   type="text/css"
   id="style1-6">
	.st0{fill:#FFFFFF;}
</style><path
   class="st0"
   d="m 349.92859,115.53849 c -3.14687,-6.29373 -8.87861,-12.08169 -17.08294,-17.082943 l 0.0561,-0.05612 v 0 c 6.51848,-7.754702 10.28348,-15.340894 11.23877,-22.589872 1.06767,-7.923359 -1.40486,-15.116135 -7.08041,-20.84793 l -0.0561,-0.05611 c -5.6756,-5.675543 -12.92459,-8.14807 -20.84794,-7.080413 -7.24898,0.955299 -14.89133,4.776495 -22.64609,11.294984 v -0.05611 0 C 288.50874,50.803511 282.777,45.01556 276.42707,41.812495 c -6.96801,-3.484031 -14.3856,-3.540232 -21.52222,-0.224902 l -0.11222,0.05611 c -15.90286,7.473787 -18.88112,25.849189 -7.97952,49.225802 l 0.22491,0.505727 c 1.85439,4.888855 5.39459,12.418848 11.85687,20.791718 v 0 0 c -2.64109,9.38434 -3.14682,17.02674 -3.14682,21.74698 v 2.24778 h 2.24772 c 4.72029,0 12.36264,-0.56193 21.80322,-3.20307 v 0 0 c 8.31664,6.34993 15.79043,9.89011 20.56693,11.68831 l 0.56192,0.28101 c 9.21579,4.27076 17.64488,6.46228 25.11861,6.46228 1.85441,0 3.65264,-0.11221 5.33842,-0.39323 8.59765,-1.40482 15.05994,-6.23748 18.71253,-14.04844 l 0.0561,-0.11221 c 3.25929,-6.96802 3.20309,-14.3856 -0.22488,-21.29745 z M 294.69007,71.426345 c 0.0561,0.168795 0.11223,0.337121 0.22491,0.449337 l 0.11222,0.281013 c 0.22489,0.505773 0.4498,1.067704 0.67433,1.573432 l 0.39323,0.899097 c 0.2249,0.505773 0.39323,1.0115 0.61813,1.461072 0.11222,0.281012 0.22491,0.618132 0.33712,0.899097 0.16833,0.505728 0.39323,1.011501 0.56193,1.461027 l 0.33713,0.899097 c 0.16832,0.505727 0.39321,1.067704 0.56191,1.573432 l 0.28102,0.786692 c 0.2249,0.674334 0.44934,1.348669 0.67433,2.023002 l 0.11222,0.337121 c 0.11221,0.449339 0.28102,0.899097 0.39323,1.348622 -0.67433,-0.168794 -1.34867,-0.281011 -2.02296,-0.449338 l -0.28101,-0.05611 c -0.84298,-0.168793 -1.62967,-0.337119 -2.47257,-0.449337 l -0.56198,-0.112218 c -0.84289,-0.168793 -1.74198,-0.281012 -2.58488,-0.449338 l -0.56194,-0.05611 c -0.78673,-0.112217 -1.57342,-0.224902 -2.36016,-0.337121 l -0.39323,-0.05611 c -0.84289,-0.112219 -1.74199,-0.168795 -2.5849,-0.281012 l -0.61812,-0.05611 c -0.8991,-0.05611 -1.74198,-0.168794 -2.64113,-0.224902 h -0.1688 c -0.8429,-0.05611 -1.68583,-0.112218 -2.47253,-0.112218 h -0.56192 c -0.56193,0 -1.12387,0 -1.68584,-0.05611 0.33711,-0.449339 0.61813,-0.899098 0.95529,-1.348622 0.0561,-0.112217 0.1688,-0.224902 0.22491,-0.33712 l 0.1688,-0.224904 c 0.44933,-0.56193 0.84289,-1.123858 1.29246,-1.685789 0.1688,-0.168794 0.28101,-0.33712 0.44934,-0.561929 l 0.2249,-0.281012 c 0.39323,-0.505774 0.73049,-0.9553 1.12386,-1.461074 0.2249,-0.281012 0.44934,-0.561929 0.73053,-0.899096 0.39323,-0.449339 0.7867,-0.899097 1.12387,-1.348623 0.2249,-0.281011 0.50572,-0.561976 0.78669,-0.899097 0.39323,-0.449338 0.78674,-0.899144 1.1801,-1.348668 l 0.11223,-0.112218 c 0.2249,-0.224902 0.39322,-0.449338 0.61813,-0.730489 0.44933,-0.505776 0.89909,-0.9553 1.34865,-1.461074 l 0.22491,-0.281012 c 0.11223,-0.168795 0.28102,-0.281011 0.39325,-0.449339 0.67432,-0.730536 1.34861,-1.40487 2.07915,-2.13536 0.39322,-0.393228 0.73053,-0.730536 1.12386,-1.123906 0.11222,0.224903 0.22489,0.505775 0.39322,0.730536 l 0.22491,0.449807 c 0.28101,0.505727 0.50576,1.067656 0.78673,1.573383 l 0.50573,-0.224903 -0.44933,0.281012 c 0.39323,1.067705 0.73053,1.854397 1.0677,2.584934 z m 39.16708,-13.205536 c 9.44055,9.496744 7.58616,23.320412 -5.00125,38.043177 -0.56192,-0.281012 -1.12386,-0.561931 -1.62959,-0.842895 l -0.44934,-0.224903 c -0.67434,-0.337121 -1.40487,-0.674334 -2.0792,-1.011502 -0.8429,-0.393229 -1.68579,-0.786691 -2.52868,-1.12386 -0.1688,-0.05611 -0.33712,-0.112216 -0.44982,-0.224902 l -0.39323,-0.168793 c -0.56197,-0.224903 -1.1239,-0.505728 -1.68583,-0.730537 -0.2249,-0.112219 -0.39323,-0.168794 -0.61812,-0.224904 l -0.56194,-0.224903 c -0.44933,-0.168326 -0.9553,-0.393229 -1.40487,-0.561929 -0.22491,-0.112217 -0.44934,-0.168794 -0.73049,-0.281011 l -0.50578,-0.224903 c -0.4498,-0.168794 -0.89909,-0.33712 -1.29241,-0.505727 -0.28102,-0.112218 -0.50578,-0.168327 -0.78674,-0.281013 l -0.50574,-0.168793 c -0.44933,-0.168795 -0.84289,-0.281011 -1.29245,-0.449338 -0.28102,-0.112218 -0.56194,-0.168794 -0.8429,-0.281012 l -0.28101,-0.112218 c -0.44934,-0.168326 -0.9553,-0.33712 -1.40488,-0.449338 -0.33712,-0.112217 -0.61812,-0.168795 -0.9553,-0.281011 l -0.2249,-0.05611 c -0.44934,-0.168326 -0.9553,-0.281012 -1.40482,-0.449339 -0.33712,-0.112218 -0.73053,-0.224902 -1.06771,-0.33712 l -0.4498,-0.112217 c -0.0561,0 -0.16833,-0.05611 -0.2249,-0.05611 v 0 c 0,-0.05611 -0.0561,-0.168793 -0.0561,-0.224901 l -0.11221,-0.449338 c -0.11222,-0.337121 -0.2249,-0.730677 -0.33713,-1.067845 -0.11221,-0.449337 -0.28101,-0.899096 -0.39323,-1.348622 l -0.0561,-0.224903 c -0.11221,-0.337119 -0.1688,-0.618132 -0.28101,-0.955252 -0.11221,-0.449806 -0.28102,-0.842941 -0.39323,-1.292467 l -0.11222,-0.33712 c -0.11222,-0.281011 -0.2249,-0.618133 -0.33713,-0.899096 -0.11221,-0.393229 -0.281,-0.78674 -0.44932,-1.236265 l -0.22491,-0.56193 c -0.11221,-0.281011 -0.16833,-0.505773 -0.28101,-0.786738 -0.16834,-0.393229 -0.281,-0.786693 -0.44934,-1.180063 l -0.22489,-0.618132 c -0.11223,-0.281012 -0.16881,-0.505727 -0.28102,-0.786692 -0.1688,-0.393229 -0.33713,-0.842941 -0.50572,-1.236264 l -0.28102,-0.618131 c -0.11221,-0.224903 -0.1688,-0.449339 -0.28102,-0.674336 -0.2249,-0.505773 -0.44934,-1.0115 -0.61812,-1.517228 l -0.22491,-0.56193 c -0.0561,-0.168794 -0.1688,-0.33712 -0.2249,-0.505773 -0.39323,-0.842896 -0.73049,-1.68579 -1.12386,-2.528731 -0.33712,-0.674288 -0.61814,-1.348622 -1.0115,-2.022957 l -0.16833,-0.39323 c -0.28102,-0.505727 -0.56194,-1.067656 -0.78674,-1.573431 14.72281,-12.643606 28.60269,-14.498002 38.09943,-5.057414 z m -8.14807,41.414799 c -0.39323,0.393242 -0.78674,0.786742 -1.18011,1.180112 -0.73049,0.73049 -1.40482,1.40482 -2.13536,2.07916 -0.11222,0.11222 -0.28101,0.28102 -0.44934,0.39323 l -0.28101,0.22491 c -0.50573,0.44933 -1.01145,0.95529 -1.51723,1.40481 -0.2249,0.1688 -0.44934,0.39324 -0.61813,0.56193 l -0.16834,0.16833 c -0.44979,0.39323 -0.95529,0.84295 -1.40481,1.23626 -0.28102,0.22491 -0.56197,0.50578 -0.89911,0.73055 -0.44932,0.39322 -0.95529,0.78673 -1.40485,1.18006 -0.28101,0.22489 -0.56193,0.50577 -0.8991,0.73053 -0.50573,0.39324 -0.9553,0.7867 -1.46103,1.18006 l -0.28102,0.2249 c -0.16832,0.16881 -0.39322,0.28102 -0.56192,0.44935 -0.56197,0.44934 -1.12391,0.84288 -1.74204,1.29246 l -0.281,0.1688 c -0.11224,0.0561 -0.22492,0.16879 -0.33714,0.22489 -0.44933,0.33713 -0.89909,0.67435 -1.34861,0.95531 0,-0.56193 0,-1.12391 -0.0561,-1.68584 v -0.56193 c 0,-0.84289 -0.0561,-1.68584 -0.11222,-2.58493 v -0.16881 c -0.0561,-0.89909 -0.11221,-1.79819 -0.2249,-2.69728 l -0.0561,-0.56192 c -0.0561,-0.8991 -0.16879,-1.7982 -0.28102,-2.6411 l -0.0561,-0.33712 c -0.11222,-0.84294 -0.22491,-1.62963 -0.33713,-2.47251 l -0.0561,-0.505786 c -0.11222,-0.899101 -0.28102,-1.741994 -0.44935,-2.641092 l -0.11222,-0.561929 c -0.16879,-0.842941 -0.33712,-1.685836 -0.50576,-2.528731 l -0.0561,-0.224903 c -0.16832,-0.674334 -0.281,-1.348669 -0.44933,-2.07916 0.44933,0.112219 0.8991,0.281013 1.34867,0.393231 l 0.44935,0.168325 c 0.61812,0.224904 1.29245,0.393231 1.91059,0.618133 l 0.84289,0.281011 c 0.50572,0.168794 1.01151,0.337121 1.57343,0.56193 0.28102,0.112218 0.50572,0.168794 0.7867,0.281013 l 0.11222,0.05611 c 0.50576,0.168795 0.9553,0.393229 1.46102,0.56193 0.33713,0.112218 0.61813,0.224904 0.95529,0.337121 0.50579,0.168793 1.01151,0.393229 1.46109,0.618132 l 0.22489,0.112216 c 0.22491,0.112219 0.44934,0.168328 0.67429,0.281013 0.56197,0.224903 1.06771,0.449804 1.62964,0.674334 l 0.73053,0.337121 c 0.7867,0.337119 1.57344,0.674286 2.36012,1.067654 0.56194,0.281018 1.12386,0.56193 1.68584,0.786738 l 0.44934,0.224907 c 0.50573,0.224908 0.78669,0.393233 1.06765,0.505727 z m -74.00724,-8.541442 c 0.2249,-0.05611 0.44934,-0.168793 0.67429,-0.224903 l 0.33711,-0.112216 c 0.33713,-0.112219 0.67434,-0.224903 1.01151,-0.281013 l -0.16833,-0.561929 0.22491,0.505727 c 0.39323,-0.112218 0.78669,-0.224903 1.18005,-0.33712 l 0.33712,-0.112219 c 0.28102,-0.05611 0.56194,-0.168793 0.8991,-0.224903 l 0.44934,-0.112216 c 0.28102,-0.05611 0.61814,-0.168327 0.8991,-0.224903 l 0.39323,-0.112218 c 0.44935,-0.112217 0.89909,-0.168795 1.34867,-0.281011 0.44933,-0.112218 0.95529,-0.168795 1.46102,-0.281012 l 0.44934,-0.05611 c 0.33713,-0.05611 0.73049,-0.112217 1.06766,-0.168794 l 0.50578,-0.05611 c 0.33711,-0.05611 0.73048,-0.112217 1.06764,-0.168794 l 0.50579,-0.05611 c 0.50572,-0.05611 1.01146,-0.112217 1.57338,-0.224903 h 0.0562 c 0.56193,-0.05611 1.12391,-0.112218 1.68584,-0.168795 l 0.50571,-0.05611 c 0.39324,-0.05611 0.84291,-0.05611 1.23627,-0.112219 h 0.0561 c -0.28102,0.505822 -0.56194,0.955347 -0.84289,1.461075 l -0.28102,0.449336 c -0.39323,0.730537 -0.78674,1.461075 -1.18006,2.191565 l -0.11223,0.224903 c -0.39322,0.786739 -0.84288,1.573431 -1.23625,2.303968 l -0.22491,0.505727 c -0.39323,0.786785 -0.78673,1.573478 -1.12389,2.36017 l -0.0561,0.168326 c -0.33712,0.730533 -0.67428,1.517271 -1.01145,2.247767 l -0.22491,0.449348 c -0.33712,0.78673 -0.67429,1.57343 -0.95525,2.36012 l -0.16879,0.44934 c -0.28102,0.73053 -0.56194,1.46107 -0.84289,2.19157 l -0.11222,0.33711 c -0.1688,0.50572 -0.39323,1.06765 -0.56193,1.57343 -4.55169,-6.29372 -7.30518,-11.969322 -8.82241,-15.846675 z m 37.76221,-28.32167 c -0.50573,0.505727 -1.0115,0.9553 -1.51723,1.461027 -0.73054,0.730535 -1.51722,1.517229 -2.24775,2.303968 -0.16881,0.168794 -0.33714,0.33712 -0.44935,0.505728 l -0.50578,0.505727 c -0.39322,0.449806 -0.8429,0.899144 -1.23626,1.292465 -0.16832,0.224904 -0.39322,0.39323 -0.56194,0.618133 l -0.56191,0.618132 c -0.33713,0.39323 -0.67435,0.730537 -0.95531,1.123907 -0.22491,0.224903 -0.39323,0.505728 -0.61814,0.730489 l -0.50572,0.618133 c -0.28102,0.33712 -0.61813,0.730536 -0.89909,1.067703 -0.22491,0.281012 -0.44934,0.505728 -0.61814,0.786692 l -0.44933,0.561931 c -0.28102,0.39323 -0.61815,0.730536 -0.8991,1.123905 -0.2249,0.281011 -0.44934,0.561931 -0.61814,0.842895 l -0.39323,0.56193 c -0.281,0.33712 -0.56192,0.730537 -0.84289,1.067704 -0.2249,0.281011 -0.44933,0.561929 -0.61812,0.899097 l -0.33713,0.449338 c -0.28101,0.393229 -0.56192,0.786739 -0.8429,1.180062 -0.2249,0.33712 -0.44935,0.618131 -0.61812,0.955299 l -0.39324,0.618132 c -0.0561,0.112219 -0.16832,0.224903 -0.2249,0.33712 v 0 c -0.0561,0 -0.11222,0 -0.16833,0 h -0.44979 c -0.22491,0 -0.44935,0 -0.67435,0.05611 -0.39322,0 -0.8429,0.05611 -1.23625,0.05611 l -0.7305,0.05611 c -0.44933,0.05611 -0.8991,0.05611 -1.40486,0.112218 l -0.50574,0.05611 c -0.61813,0.05611 -1.23626,0.112217 -1.85439,0.224902 l -0.33713,0.05611 c -0.50572,0.05611 -0.9553,0.112218 -1.46103,0.168795 l -0.61812,0.112216 c -0.39323,0.05611 -0.73054,0.112217 -1.12391,0.168795 l -0.67433,0.112217 c -0.33712,0.05611 -0.67429,0.112217 -1.01146,0.168794 l -0.67433,0.112218 c -0.33713,0.05611 -0.61814,0.112217 -0.8991,0.168793 l -0.61814,0.112217 c -0.281,0.05611 -0.61812,0.112219 -0.8991,0.168796 l -0.61812,0.112216 c -0.28101,0.05611 -0.61813,0.112218 -0.89909,0.224903 l -0.56194,0.112218 c -0.33711,0.05611 -0.61813,0.168794 -0.9553,0.224903 l -0.39322,0.112218 c -0.44934,0.112217 -0.84291,0.224902 -1.29247,0.33712 l -0.22491,0.05611 c -0.33711,0.112218 -0.67433,0.168795 -0.95529,0.281011 l -0.44935,0.112217 c -0.2249,0.05611 -0.50571,0.168326 -0.73048,0.224903 l -0.39323,0.112218 c -4.27072,-9.777703 -5.90037,-18.712516 -4.77646,-25.792934 v 0 c 1.18007,-7.192822 5.05741,-12.362641 11.51972,-15.3971 l 0.11221,-0.05611 c 2.86585,-1.292466 5.73175,-1.9668 8.54144,-1.9668 8.93482,0 17.58867,6.349928 24.72529,18.431557 z m -27.14161,53.833654 c 0.39323,0.44933 0.8429,0.9553 1.29247,1.46107 0.16879,0.16879 0.33712,0.33712 0.50573,0.56193 l 0.1688,0.16879 c 0.50572,0.56193 1.01146,1.06765 1.51721,1.62958 l 0.16881,0.16879 c 0.16879,0.1688 0.33712,0.33714 0.44934,0.50578 0.78669,0.8429 1.51722,1.51723 2.13536,2.13535 0.67433,0.67435 1.40482,1.40483 2.19155,2.19157 0.16833,0.16881 0.33713,0.33713 0.50574,0.50573 l 0.16879,0.16879 c 0.56193,0.50573 1.12386,1.0677 1.68579,1.57345 l 0.16879,0.11221 c 0.16879,0.1688 0.39323,0.33712 0.56193,0.50572 0.50573,0.44934 1.06766,0.89915 1.51723,1.34866 -5.22602,1.23629 -10.28347,1.96681 -15.17234,2.19158 0.1688,-4.94506 0.8991,-10.00252 2.13536,-15.22853 z m 12.19409,6.18131 c -0.16879,-0.1688 -0.33713,-0.28101 -0.44934,-0.44934 -0.78669,-0.78674 -1.57344,-1.51723 -2.30393,-2.30396 -0.73053,-0.73049 -1.46107,-1.46103 -2.24777,-2.24772 -0.11221,-0.16879 -0.281,-0.28101 -0.39321,-0.44981 l -0.28102,-0.33712 c -0.50573,-0.50577 -0.9553,-1.01151 -1.46103,-1.57342 -0.16879,-0.22491 -0.33712,-0.39324 -0.50578,-0.61815 l -0.33711,-0.39322 c -0.39322,-0.44934 -0.78675,-0.8991 -1.18011,-1.34863 -0.2249,-0.22489 -0.39322,-0.50576 -0.61814,-0.73053 l -0.2249,-0.28101 c -0.2249,-0.28102 -0.44933,-0.56193 -0.67432,-0.7867 0.281,-0.95529 0.61812,-1.91059 0.89909,-2.75348 l 0.0561,-0.22491 c 0.33711,-1.0115 0.73052,-2.023 1.0677,-2.9783 v -0.0561 c 0.39322,-1.01151 0.78668,-2.02296 1.18007,-2.97826 l -0.50574,-0.2249 v 0 l 0.56193,0.16879 c 0.39323,-0.9553 0.8429,-1.91059 1.29246,-2.922103 l 0.11223,-0.224905 c 0.39323,-0.89909 0.84288,-1.79819 1.34866,-2.80969 l 0.16833,-0.281013 c 0.44934,-0.842894 0.8991,-1.741992 1.40487,-2.697291 l 0.16879,-0.337121 c 0.50578,-0.842894 1.0115,-1.741992 1.51723,-2.641088 l 0.22491,-0.393229 c 0.50573,-0.842941 1.01145,-1.685837 1.57338,-2.528731 0.9553,0 1.91059,0 2.80969,0 h 0.50578 c 1.01145,0 1.96676,0.05611 2.92206,0.112218 h 0.39322 c 1.06766,0.05611 2.07915,0.112218 3.03445,0.168327 h 0.28102 c 1.12391,0.112217 2.13536,0.168794 3.14686,0.33712 l 0.0561,-0.56193 v 0 0.56193 c 1.01151,0.112218 2.02296,0.281012 3.14687,0.449338 l 0.28101,0.05611 c 0.95531,0.168794 1.96676,0.337121 3.03446,0.505728 l 0.39323,0.05611 c 0.9553,0.168795 1.96681,0.393231 2.97825,0.618133 l 0.50578,0.112217 c 0.9553,0.224903 1.91055,0.449339 2.86584,0.674335 0.22492,0.955299 0.44934,1.9668 0.67434,2.865898 l 0.11224,0.505727 c 0.22488,1.011502 0.44931,2.023003 0.61812,2.978302 l 0.0561,0.449338 c 0.2249,1.123854 0.39323,2.079163 0.50578,3.09067 l 0.0561,0.28101 c 0.16879,1.12385 0.28101,2.19152 0.44933,3.20301 v 0.0561 c 0.11223,1.0115 0.22491,2.07916 0.33712,3.14686 v 0.28101 c 0.0561,0.95531 0.16834,1.9668 0.16834,3.09066 v 0.39323 c 0.0561,0.95531 0.0561,1.9106 0.0561,2.97826 v 0.44933 c 0,0.9553 0,1.9106 0,2.86591 -0.84295,0.50573 -1.68584,1.06765 -2.52874,1.51722 l -0.39323,0.2249 c -0.89909,0.50573 -1.74203,1.0115 -2.58493,1.51723 l -0.33711,0.16834 c -0.8991,0.50571 -1.79819,0.95529 -2.69729,1.40485 l -0.28102,0.16881 c -0.9553,0.50572 -1.8544,0.95524 -2.7535,1.34863 l -0.22489,0.11221 c -1.0115,0.44933 -1.9668,0.89909 -2.92209,1.29245 h -0.0561 c -0.9553,0.39324 -1.96675,0.7867 -2.97826,1.18007 h -0.0561 c -0.95529,0.33714 -1.85438,0.67434 -2.92205,1.06771 l -0.2249,0.11221 c -0.8991,0.28102 -1.79819,0.61814 -2.75349,0.89911 -0.28102,-0.2249 -0.56194,-0.44934 -0.8429,-0.67434 l -0.28101,-0.2249 c -0.22491,-0.16879 -0.44935,-0.39323 -0.67435,-0.56192 -0.44933,-0.39324 -0.89909,-0.78675 -1.34865,-1.18009 l -0.44935,-0.39323 c -0.2249,-0.16877 -0.39323,-0.3371 -0.61813,-0.56197 -0.50577,-0.44934 -1.0115,-0.89904 -1.46108,-1.40482 z m 12.08163,8.14813 0.33712,-0.11223 c 0.73053,-0.28101 1.40487,-0.50576 2.13535,-0.78673 l 0.44934,-0.16833 c 0.78674,-0.33713 1.51728,-0.61813 2.30398,-0.95529 l 0.50571,-0.22491 c 0.73055,-0.33713 1.46109,-0.61814 2.19157,-0.95525 l 0.22491,-0.11221 c 0.78673,-0.33714 1.51722,-0.73055 2.30397,-1.12392 l 0.50572,-0.28101 c 0.78674,-0.39323 1.51722,-0.7867 2.30397,-1.18006 l 0.2249,-0.11222 c 0.67429,-0.39324 1.40482,-0.7867 2.07915,-1.18006 l 0.50574,-0.28102 c 0.44934,-0.28101 0.95529,-0.56193 1.40487,-0.84289 -0.0561,0.39323 -0.0561,0.84289 -0.11223,1.23627 l -0.0561,0.50571 c -0.0561,0.56194 -0.11221,1.12387 -0.16878,1.6858 l 0.56192,0.0561 h -0.56192 c -0.0561,0.50579 -0.11224,1.01151 -0.22491,1.5173 l -0.0561,0.50571 c -0.0561,0.33712 -0.11222,0.73049 -0.1688,1.06767 l -0.11222,0.56197 c -0.0561,0.33711 -0.11222,0.67429 -0.16879,1.01144 l -0.0561,0.44935 c -0.11222,0.44933 -0.16833,0.9553 -0.28101,1.40488 l 0.56194,0.11221 h -0.56194 c -0.11223,0.44933 -0.16834,0.84289 -0.281,1.23626 l -0.11222,0.39323 c -0.0561,0.28101 -0.1688,0.61814 -0.22491,0.8991 l -0.11222,0.39323 c -0.0561,0.28101 -0.16879,0.61813 -0.2249,0.8991 l -0.11223,0.33711 c -0.11221,0.39323 -0.22489,0.7867 -0.3371,1.18007 -0.11223,0.39322 -0.22491,0.73053 -0.33712,1.0677 l -0.11222,0.28101 c -0.0561,0.22491 -0.16833,0.50574 -0.22491,0.7305 -3.82119,-1.57345 -9.38439,-4.27072 -15.67806,-8.71007 0.61813,-0.16878 1.12385,-0.33711 1.68578,-0.50571 z m 18.3192,10.67679 c 0.0561,-0.22488 0.16832,-0.50571 0.22489,-0.73048 l 0.11223,-0.39323 c 0.11221,-0.33713 0.2249,-0.67434 0.281,-1.0115 l 0.0561,-0.16879 c 0.11222,-0.39323 0.2249,-0.84289 0.33712,-1.29247 l 0.11221,-0.39323 c 0.0561,-0.33712 0.1688,-0.61813 0.22491,-0.9553 l 0.11221,-0.56192 c 0.0561,-0.28102 0.11223,-0.56193 0.22491,-0.8429 l 0.11223,-0.61813 c 0.0561,-0.28101 0.11221,-0.56193 0.16832,-0.84295 l 0.11221,-0.67429 c 0.0561,-0.28101 0.11223,-0.56198 0.16833,-0.8991 l 0.11222,-0.67433 c 0.0561,-0.281 0.11222,-0.61812 0.16833,-0.95529 v -0.0561 c 0.0561,-0.2249 0.0561,-0.44934 0.11221,-0.61814 0.0561,-0.33712 0.11221,-0.67433 0.16834,-1.0115 l 0.11221,-0.67433 c 0.0561,-0.39324 0.11222,-0.84289 0.16879,-1.29248 l 0.0561,-0.4498 c 0.0561,-0.56192 0.11222,-1.18006 0.22491,-1.79819 l 0.0561,-0.61813 c 0.0561,-0.39323 0.0561,-0.8429 0.11222,-1.29246 l 0.0561,-0.7867 c 0.0561,-0.39323 0.0561,-0.7867 0.0561,-1.18006 0,-0.28101 0.0561,-0.56193 0.0561,-0.8429 v -0.2249 c 0,-0.0561 0,-0.11221 0,-0.16879 0.11222,-0.11222 0.281,-0.16879 0.39323,-0.28101 l 0.56192,-0.39324 c 0.33713,-0.22489 0.67434,-0.44933 0.95531,-0.67433 0.39323,-0.281 0.7867,-0.56193 1.18005,-0.84293 l 0.50579,-0.33713 c 0.28101,-0.22491 0.56192,-0.39323 0.84289,-0.61812 0.39323,-0.28101 0.78668,-0.61814 1.18007,-0.8991 l 0.44933,-0.33712 c 0.281,-0.22491 0.56193,-0.39324 0.84289,-0.61808 0.39323,-0.28101 0.78674,-0.61815 1.12391,-0.89916 l 0.56193,-0.44933 c 0.22491,-0.2249 0.50573,-0.39322 0.73049,-0.61813 0.39323,-0.33713 0.73054,-0.61814 1.1239,-0.95525 l 0.61813,-0.50578 c 0.22491,-0.1688 0.44934,-0.39323 0.67434,-0.56193 0.39323,-0.33712 0.8429,-0.73053 1.23627,-1.06766 l 0.56192,-0.50576 c 0.16832,-0.16881 0.39323,-0.33714 0.56194,-0.50574 0.56193,-0.50577 1.12386,-1.06771 1.68583,-1.57343 l 0.28102,-0.2249 c 0.11221,-0.11222 0.28101,-0.22491 0.39322,-0.33713 0.7867,-0.73053 1.57339,-1.51722 2.30392,-2.24776 0.50573,-0.50572 1.0115,-1.0115 1.51724,-1.51722 l 0.56187,-0.5618 c 15.79047,9.38434 21.74704,21.46601 16.2962,33.15431 l -0.0561,0.11223 c -3.03446,6.46229 -8.20428,10.33964 -15.3971,11.51975 -7.08041,1.18006 -16.01523,-0.50578 -25.79294,-4.7765 z"
   id="path1-7"
   style="stroke-width:4.67574" /></svg>
