<?xml version="1.0" encoding="UTF-8" standalone="no"?>
<svg
   xmlns:dc="http://purl.org/dc/elements/1.1/"
   xmlns:cc="http://creativecommons.org/ns#"
   xmlns:rdf="http://www.w3.org/1999/02/22-rdf-syntax-ns#"
   xmlns:svg="http://www.w3.org/2000/svg"
   xmlns="http://www.w3.org/2000/svg"
   height="63.328629"
   width="368.00058"
   version="1.1"
   viewBox="0 0 368.00058 63.328629"
   data-name="Camada 1"
   id="Camada_1">
  <metadata
     id="metadata47">
    <rdf:RDF>
      <cc:Work
         rdf:about="">
        <dc:format>image/svg+xml</dc:format>
        <dc:type
           rdf:resource="http://purl.org/dc/dcmitype/StillImage" />
        <dc:title>marca webPrancheta 1</dc:title>
      </cc:Work>
    </rdf:RDF>
  </metadata>
  <defs
     id="defs4">
    <style
       id="style2">.cls-1{fill:#a4ccd6;}.cls-2{fill:#7db6c4;}.cls-3{fill:#56a0b0;}.cls-4{fill:#1f2f56;}</style>
  </defs>
  <title
     id="title6">marca webPrancheta 1</title>
  <path
     style="fill:#a4ccd6"
     id="path8"
     d="m 340.31269,27.701908 a 71.83,71.83 0 0 1 12.05,4.39 q 1.76,0.82 3.32,1.7 c 8.73,-9.71 9.7,-18.81 3.56,-24.9400005 v 0 c -6.14,-6.14 -15.24,-5.16 -25,3.5900005 q 0.84,1.51 1.64,3.21 a 71.83,71.83 0 0 1 4.43,12.05 z"
     class="cls-1" />
  <path
     style="fill:#7db6c4"
     id="path10"
     d="m 315.73269,41.301908 a 46.91,46.91 0 0 0 -2,13.07 47,47 0 0 0 13.08,-2 57,57 0 0 1 -5.87,-5.29 57.05,57.05 0 0 1 -5.21,-5.78 z"
     class="cls-2" />
  <path
     style="fill:#a4ccd6"
     id="path12"
     d="m 323.00269,25.671908 a 71.08,71.08 0 0 1 9.3,-11.38 q 1,-1 2,-1.86 c -6.09,-10.9400005 -14.11,-14.7000005 -21.8,-11.1200005 v 0 c -8.39,3.91 -10.34,13.7700005 -4.09,27.1600005 l 0.17,0.35 -0.19,-0.5 a 47.76,47.76 0 0 1 14.61,-2.65 z"
     class="cls-1" />
  <path
     style="fill:#a4ccd6"
     id="path14"
     d="m 355.69269,33.801908 q -0.89,1 -1.88,2 a 70.85,70.85 0 0 1 -11.48,9.36 47.71,47.71 0 0 1 -2.66,14.51 l -0.5,-0.19 0.35,0.17 c 13.39,6.25 23.25,4.3 27.16,-4.09 v 0 c 3.58,-7.68 -0.15,-15.68 -10.99,-21.76 z"
     class="cls-1" />
  <path
     style="fill:#7db6c4"
     id="path16"
     d="m 308.36269,28.341908 0.19,0.5 a 48.24,48.24 0 0 0 7.19,12.46 l 0.08,-0.27 a 58.82,58.82 0 0 1 7.18,-15.36 47.76,47.76 0 0 0 -14.64,2.67 z"
     class="cls-2" />
  <path
     style="fill:#56a0b0"
     id="path18"
     d="m 340.31269,27.701908 a 60,60 0 0 0 -17.29,-2 58.82,58.82 0 0 0 -7.2,15.36 l -0.08,0.27 a 57.05,57.05 0 0 0 5.21,5.77 57,57 0 0 0 5.87,5.29 l 0.27,-0.08 a 59,59 0 0 0 15.24,-7.15 59.92,59.92 0 0 0 -2.02,-17.46 z"
     class="cls-3" />
  <path
     style="fill:#7db6c4"
     id="path20"
     d="m 340.31269,27.701908 a 71.83,71.83 0 0 0 -4.39,-12.05 q -0.79,-1.7 -1.64,-3.21 -1,0.88 -2,1.86 a 71.08,71.08 0 0 0 -9.28,11.37 60,60 0 0 1 17.31,2.03 z"
     class="cls-2" />
  <path
     style="fill:#7db6c4"
     id="path22"
     d="m 342.33269,45.161908 a 59,59 0 0 1 -15.24,7.13 l -0.27,0.08 a 48.19,48.19 0 0 0 12.36,7.11 v 0 l 0.5,0.19 a 47.71,47.71 0 0 0 2.65,-14.51 z"
     class="cls-2" />
  <path
     style="fill:#7db6c4"
     id="path24"
     d="m 353.80269,35.781908 q 1,-1 1.88,-2 v 0 q -1.56,-0.88 -3.32,-1.7 a 71.83,71.83 0 0 0 -12.05,-4.39 59.92,59.92 0 0 1 2,17.44 70.85,70.85 0 0 0 11.49,-9.35 z"
     class="cls-2" />
  <path
     style="fill:#1f2f56"
     id="path26"
     d="m 87.13269,12.421908 h -7.31 a 0.29,0.29 0 0 0 -0.32,0.28 v 41.25 c 0,0.19 0.11,0.28 0.32,0.28 h 7.31 c 0.21,0 0.32,-0.09 0.32,-0.28 v -41.25 c 0,-0.16 -0.11,-0.25 -0.32,-0.28 z"
     class="cls-4" />
  <path
     style="fill:#1f2f56"
     id="path28"
     d="m 185.69269,27.661908 a 8,8 0 0 1 8.15,-8.09 h 11.56 a 0.28,0.28 0 0 0 0.32,-0.32 v -6.51 c 0,-0.18 -0.11,-0.29 -0.32,-0.32 h -11.56 c -10.3,0.7 -13.58,7.54 -15.08,13.15 v 0 c -0.11,0.11 -0.12,3.93 -0.12,7.88 0.08,3.06 -0.2,6 0.29,8.26 1.74,8 8,12.52 14.92,12.52 h 11.55 a 0.28,0.28 0 0 0 0.32,-0.32 v -6.52 c 0,-0.19 -0.11,-0.29 -0.32,-0.32 h -11.49 a 7.92,7.92 0 0 1 -8.23,-8 c 0,-3.43 0.01,-5.68 0.01,-11.41 z"
     class="cls-4" />
  <path
     style="fill:#1f2f56"
     id="path30"
     d="m 95.56269,12.421908 h 18.78 c 6.13,0 14,6.1 14,13.94 v 27.55 a 0.28,0.28 0 0 1 -0.32,0.32 h -7.31 a 0.28,0.28 0 0 1 -0.32,-0.32 v -25.09 a 9.24,9.24 0 0 0 -9.47,-9.4 h -7.92 v 34.5 a 0.28,0.28 0 0 1 -0.32,0.32 h -7.15 a 0.28,0.28 0 0 1 -0.32,-0.32 v -41.18 c 0.05,-0.21 0.16,-0.32 0.35,-0.32 z"
     class="cls-4" />
  <path
     style="fill:#1f2f56"
     id="path32"
     d="M 14.45269,12.421908 H 0.23268961 c -0.13,0 -0.21,0.08 -0.23,0.23 v 6.7 a 0.2,0.2 0 0 0 0.23,0.23 H 12.36269 v 34.42 a 0.2,0.2 0 0 0 0.22,0.23 h 7.5 a 0.2,0.2 0 0 0 0.22,-0.23 v -36.51 a 6.19,6.19 0 0 0 -0.79,-3.27 q -1.09,-1.8 -5.06,-1.8 z"
     class="cls-4" />
  <path
     style="fill:#1f2f56"
     id="path34"
     d="m 32.43269,12.421908 h -21.8 v 0.23 a 2.71,2.71 0 0 1 1.6,0.53 2.35,2.35 0 0 1 0.85,1 2.7,2.7 0 0 1 0.26,1.08 5.31,5.31 0 0 1 0,0.6 c 0,1.76 0,3.69 0,3.69 h 19.09 a 0.2,0.2 0 0 0 0.23,-0.23 v -6.7 c 0,-0.1 -0.08,-0.18 -0.23,-0.2 z"
     class="cls-4" />
  <path
     style="fill:#1f2f56"
     id="path36"
     d="m 255.00269,12.421908 h 18.78 c 6.13,0 14,6.1 14,13.94 v 27.55 a 0.28,0.28 0 0 1 -0.32,0.32 h -7.31 a 0.28,0.28 0 0 1 -0.32,-0.32 v -25.09 a 9.24,9.24 0 0 0 -9.47,-9.4 h -7.86 v 34.5 a 0.28,0.28 0 0 1 -0.32,0.32 h -7.18 a 0.28,0.28 0 0 1 -0.32,-0.32 v -41.18 c -0.01,-0.21 0.09,-0.32 0.32,-0.32 z"
     class="cls-4" />
  <path
     style="fill:#1f2f56"
     id="path38"
     d="m 247.00269,23.231908 a 28,28 0 0 0 -0.48,-4 q -2.11,-6.83 -9.22,-6.84 h -20 c -0.19,0 -0.29,0.11 -0.32,0.32 v 6.55 a 0.28,0.28 0 0 0 0.32,0.32 h 18.87 c 3.61,0 4.11,5.53 0,6 -3.47,0.46 -6.89,0.89 -9.13,1 -7.85,0.47 -13.18,6 -13.71,13.05 v 0.45 a 16.8,16.8 0 0 0 1.27,6.36 c 2,4.56 6.33,7.82 13,7.82 h 19.08 a 0.28,0.28 0 0 0 0.32,-0.32 v -30.18 0 c 0,-0.18 0,-0.35 0,-0.53 z m -19.79,23.85 c -9.15,0 -8.78,-13.48 0,-13.48 8.78,0 10,-0.86 11.82,-1.13 v 14.61 z"
     class="cls-4" />
  <path
     style="fill:#1f2f56"
     id="path40"
     d="m 72.64269,23.231908 a 28,28 0 0 0 -0.48,-4 q -2.11,-6.83 -9.22,-6.84 h -20 c -0.19,0 -0.29,0.11 -0.32,0.32 v 6.55 a 0.28,0.28 0 0 0 0.32,0.32 h 18.84 c 3.61,0 4.11,5.53 0,6 -3.47,0.46 -6.89,0.89 -9.13,1 -7.85,0.47 -13.18,6 -13.71,13.05 v 0.45 a 16.8,16.8 0 0 0 1.27,6.36 c 2,4.56 6.33,7.82 13,7.82 h 19.08 a 0.28,0.28 0 0 0 0.32,-0.32 v -30.18 0 c 0.02,-0.18 0.03,-0.35 0.03,-0.53 z m -19.77,23.85 c -9.15,0 -8.78,-13.48 0,-13.48 8.78,0 10,-0.86 11.82,-1.13 v 14.61 z"
     class="cls-4" />
  <path
     style="fill:#1f2f56"
     id="path42"
     d="m 170.46269,23.231908 a 28,28 0 0 0 -0.48,-4 q -2.11,-6.83 -9.22,-6.84 h -20 c -0.19,0 -0.29,0.11 -0.32,0.32 v 6.55 a 0.28,0.28 0 0 0 0.32,0.32 h 18.84 c 3.61,0 4.11,5.53 0,6 -3.47,0.46 -6.89,0.89 -9.13,1 -7.85,0.47 -13.18,6 -13.71,13.05 v 0.45 a 16.8,16.8 0 0 0 1.24,6.33 c 2,4.56 6.33,7.82 13,7.82 h 19.08 a 0.28,0.28 0 0 0 0.32,-0.32 v -30.15 0 c 0.05,-0.18 0.06,-0.35 0.06,-0.53 z m -19.77,23.85 c -9.15,0 -8.78,-13.48 0,-13.48 8.78,0 10,-0.86 11.82,-1.13 v 14.61 z"
     class="cls-4" />
</svg>
