<svg id="Camada_1" data-name="Camada 1" xmlns="http://www.w3.org/2000/svg" xmlns:xlink="http://www.w3.org/1999/xlink" viewBox="0 0 256 256"><defs><style>.cls-1{fill:none;}.cls-2{clip-path:url(#clip-path);}.cls-3{opacity:0.2;}.cls-4{fill:#a4ccd6;}.cls-5{fill:#7db6c4;}.cls-6{fill:#fff;}.cls-7{fill:#56a0b0;}.cls-8{fill:#1f2f56;}</style><clipPath id="clip-path"><rect class="cls-1" x="-178" y="-626" width="1544" height="500"/></clipPath></defs><title>icon</title><g class="cls-2"><g class="cls-3"><path class="cls-4" d="M226.35-302.23q-10.79,12-22.88,24.12c-47,47-94.07,84.31-139.51,113.87C60.87-77.62,41.84-15.85,31.59,12.32q-2.84-1-6.08-2.27c1.43.67,2.83,1.36,4.27,2,162.86,76,282.69,52.36,330.29-49.76l0-.06,0-.06C403.55-131,358.28-228.2,226.35-302.23Z"/><path class="cls-5" d="M63.95-164.24C-3.12-120.63-66.67-93.85-121.43-77.47l-3.31,1C-61-26.74-4.9-1.54,25.51,10h0q3.24,1.23,6.08,2.27C41.84-15.85,60.87-77.62,63.95-164.24Z"/></g></g><rect class="cls-6" width="256" height="256"/><path class="cls-4" d="M135.81,98.15a146.89,146.89,0,0,1,24.65,9q3.6,1.68,6.8,3.48c17.85-19.86,19.83-38.46,7.29-51h0C162,47,143.36,49,123.48,66.93q1.73,3.1,3.35,6.56A146.89,146.89,0,0,1,135.81,98.15Z"/><path class="cls-5" d="M85.56,125.94a95.92,95.92,0,0,0-4.08,26.72,96,96,0,0,0,26.74-4.11,116.56,116.56,0,0,1-12-10.81A116.67,116.67,0,0,1,85.56,125.94Z"/><path class="cls-4" d="M100.45,94a145.34,145.34,0,0,1,19-23.26q2-2,4-3.8C111,44.57,94.61,36.87,78.9,44.2h0c-17.17,8-21.13,28.16-8.36,55.54l.34.72-.38-1A97.67,97.67,0,0,1,100.45,94Z"/><path class="cls-4" d="M167.26,110.61q-1.81,2-3.85,4.05a144.87,144.87,0,0,1-23.46,19.14,97.55,97.55,0,0,1-5.44,29.68l-1-.38.72.34c27.39,12.77,47.54,8.8,55.54-8.36h0C197.06,139.4,189.44,123.05,167.26,110.61Z"/><path class="cls-5" d="M70.47,99.45l.38,1a98.64,98.64,0,0,0,14.71,25.47l.16-.55A120.27,120.27,0,0,1,100.45,94,97.67,97.67,0,0,0,70.47,99.45Z"/><path class="cls-7" d="M135.81,98.15A122.63,122.63,0,0,0,100.45,94a120.27,120.27,0,0,0-14.73,31.4l-.16.55a116.67,116.67,0,0,0,10.65,11.8,116.56,116.56,0,0,0,12,10.81l.56-.16a120.54,120.54,0,0,0,31.17-14.59A122.52,122.52,0,0,0,135.81,98.15Z"/><path class="cls-5" d="M135.81,98.15a146.89,146.89,0,0,0-9-24.65q-1.62-3.47-3.35-6.56-2,1.79-4,3.8a145.34,145.34,0,0,0-19,23.26A122.63,122.63,0,0,1,135.81,98.15Z"/><path class="cls-5" d="M139.95,133.81a120.54,120.54,0,0,1-31.17,14.59l-.56.16a98.55,98.55,0,0,0,25.27,14.55h0l1,.38A97.55,97.55,0,0,0,139.95,133.81Z"/><path class="cls-5" d="M163.41,114.66q2-2,3.85-4.05h0q-3.2-1.79-6.8-3.48a146.89,146.89,0,0,0-24.65-9,122.52,122.52,0,0,1,4.14,35.66A144.87,144.87,0,0,0,163.41,114.66Z"/><path class="cls-8" d="M94.88,190.07H90.61a.17.17,0,0,0-.19.16v24.09c0,.11.06.16.19.16h4.27c.12,0,.19-.05.19-.16V190.23C95.06,190.14,95,190.09,94.88,190.07Z"/><path class="cls-8" d="M152.43,199a4.7,4.7,0,0,1,4.76-4.72h6.75a.16.16,0,0,0,.19-.19v-3.81c0-.11-.06-.17-.19-.19h-6.75c-6,.41-7.93,4.4-8.81,7.68h0c-.07.06-.07,2.29-.07,4.6a30.12,30.12,0,0,0,.17,4.82,8.83,8.83,0,0,0,8.71,7.31h6.75a.16.16,0,0,0,.19-.19v-3.81c0-.11-.06-.17-.19-.19h-6.71a4.63,4.63,0,0,1-4.81-4.66C152.42,203.63,152.43,202.31,152.43,199Z"/><path class="cls-8" d="M99.8,190.07h11c3.58,0,8.16,3.56,8.16,8.14V214.3a.16.16,0,0,1-.19.19h-4.27a.16.16,0,0,1-.19-.19V199.64a5.4,5.4,0,0,0-5.53-5.49h-4.59V214.3a.16.16,0,0,1-.19.19H99.8a.16.16,0,0,1-.19-.19v-24C99.63,190.13,99.69,190.07,99.8,190.07Z"/><path class="cls-8" d="M52.44,190.07h-8.3c-.08,0-.12,0-.13.13v3.91a.12.12,0,0,0,.13.13h7.08v20.1a.12.12,0,0,0,.13.13h4.38a.12.12,0,0,0,.13-.13V193a3.61,3.61,0,0,0-.46-1.91Q54.75,190.07,52.44,190.07Z"/><path class="cls-8" d="M62.94,190.07H50.21v.13a1.58,1.58,0,0,1,.93.31,1.37,1.37,0,0,1,.5.6,1.58,1.58,0,0,1,.15.63,3.1,3.1,0,0,1,0,.35c0,1,0,2.15,0,2.15H62.94a.12.12,0,0,0,.13-.13V190.2C63.07,190.13,63,190.08,62.94,190.07Z"/><path class="cls-8" d="M192.88,190.07h11c3.58,0,8.16,3.56,8.16,8.14V214.3a.16.16,0,0,1-.19.19h-4.27a.16.16,0,0,1-.19-.19V199.64a5.4,5.4,0,0,0-5.53-5.49h-4.59V214.3a.16.16,0,0,1-.19.19h-4.18a.16.16,0,0,1-.19-.19v-24C192.71,190.13,192.77,190.07,192.88,190.07Z"/><path class="cls-8" d="M188.21,196.38a16.34,16.34,0,0,0-.28-2.32,5.16,5.16,0,0,0-5.38-4h-11.7c-.11,0-.17.06-.19.19v3.81a.16.16,0,0,0,.19.19h11a1.74,1.74,0,0,1,0,3.47c-2,.27-4,.52-5.33.6a8.19,8.19,0,0,0-8,7.62v.26a9.81,9.81,0,0,0,.74,3.71c1.16,2.66,3.7,4.56,7.61,4.56H188a.16.16,0,0,0,.19-.19V196.69h0C188.21,196.59,188.21,196.49,188.21,196.38Zm-11.54,13.92c-5.34,0-5.13-7.87,0-7.87a23.85,23.85,0,0,0,6.9-.66v8.53Z"/><path class="cls-8" d="M86.42,196.38a16.34,16.34,0,0,0-.28-2.32,5.16,5.16,0,0,0-5.38-4H69.06c-.11,0-.17.06-.19.19v3.81a.16.16,0,0,0,.19.19h11a1.74,1.74,0,0,1,0,3.47c-2,.27-4,.52-5.33.6a8.19,8.19,0,0,0-8,7.62v.26a9.81,9.81,0,0,0,.74,3.71c1.16,2.66,3.7,4.56,7.61,4.56H86.23a.16.16,0,0,0,.19-.19V196.69h0C86.41,196.59,86.42,196.49,86.42,196.38ZM74.87,210.31c-5.34,0-5.13-7.87,0-7.87a23.85,23.85,0,0,0,6.9-.66v8.53Z"/><path class="cls-8" d="M143.53,196.38a16.34,16.34,0,0,0-.28-2.32,5.16,5.16,0,0,0-5.38-4h-11.7c-.11,0-.17.06-.19.19v3.81a.16.16,0,0,0,.19.19h11a1.74,1.74,0,0,1,0,3.47c-2,.27-4,.52-5.33.6a8.19,8.19,0,0,0-8,7.62v.26a9.81,9.81,0,0,0,.74,3.71c1.16,2.66,3.7,4.56,7.61,4.56h11.14a.16.16,0,0,0,.19-.19V196.69h0C143.53,196.59,143.53,196.49,143.53,196.38ZM132,210.31c-5.34,0-5.13-7.87,0-7.87a23.85,23.85,0,0,0,6.9-.66v8.53Z"/></svg>