<svg version="1.1" xmlns="http://www.w3.org/2000/svg" fill="currentColor" width="1em" height="1em" viewBox="0 0 32 32">
<path d="M26.592 14.72q0 1.024-0.176 2.048t-0.496 1.952h-2.912q0.384-0.928 0.656-1.904t0.272-2.096q0-1.952-0.72-3.648t-1.984-2.96-2.96-1.984-3.648-0.72-3.648 0.72-2.96 1.984-1.984 2.96-0.72 3.648q0 1.728 0.608 3.312t1.68 2.816 2.544 2.048 3.168 1.008v2.656q-2.24-0.256-4.192-1.28t-3.392-2.608-2.256-3.616-0.816-4.336q0-2.496 0.928-4.672t2.56-3.808 3.808-2.56 4.672-0.928 4.672 0.928 3.808 2.56 2.56 3.808 0.928 4.672zM18.624 29.344h-2.656v-2.656h2.656v2.656zM18.624 24.032h-2.656v-2.656h2.656v2.656zM29.248 29.344h-7.968v-2.656h7.968v2.656zM29.248 24.032h-7.968v-2.656h7.968v2.656zM15.968 8.064h-2.656v8l3.584 2.656h4.384l-5.312-4v-6.656z"></path>
</svg>
