<svg version="1.1" xmlns="http://www.w3.org/2000/svg" fill="currentColor" width="1em" height="1em" viewBox="0 0 32 32">
<path d="M19.84 24.704q-0.256-0.864-0.32-1.92h-14.944v-13.376h-1.92v13.376q0 0.8 0.56 1.36t1.36 0.56h15.264zM23.68 7.488q0.8 0 1.36 0.56t0.56 1.36v7.264q-0.992 0-1.92 0.32t-1.68 0.88-1.312 1.328-0.848 1.696h-11.456q-0.8 0-1.344-0.56t-0.544-1.36v-11.488q0-0.8 0.544-1.344t1.344-0.544h5.76l1.888 1.888h7.648zM29.344 22.752q0-0.768-0.288-1.456t-0.8-1.2-1.2-0.8-1.456-0.288-1.456 0.288-1.184 0.8-0.8 1.2-0.304 1.456 0.304 1.456 0.8 1.184 1.184 0.8 1.456 0.304 1.456-0.304 1.2-0.8 0.8-1.184 0.288-1.456zM27.84 23.296h-1.664v1.696h-1.12v-1.696h-1.696v-1.12h1.696v-1.664h1.12v1.664h1.664v1.12z"></path>
</svg>
