<svg version="1.1" xmlns="http://www.w3.org/2000/svg" fill="currentColor" width="1em" height="1em" viewBox="0 0 32 32">
<path d="M2.656 16.672q0-1.536 0.576-2.864t1.568-2.32 2.336-1.568 2.848-0.576h14.016q1.12 0 2.080 0.416t1.696 1.136 1.152 1.68 0.416 2.080-0.416 2.096-1.152 1.696-1.696 1.136-2.080 0.416h-11.328q-1.408 0-2.368-0.96t-0.96-2.368 0.96-2.368 2.368-0.96h10.016v2.656h-10.144q-0.288 0-0.416 0.208t-0.128 0.464 0.128 0.464 0.416 0.208h11.456q1.12 0 1.904-0.784t0.784-1.904q0-1.088-0.784-1.872t-1.904-0.784h-14.016q-0.96 0-1.808 0.368t-1.488 1.008-1.008 1.488-0.368 1.808 0.368 1.808 1.008 1.488 1.488 1.008 1.808 0.368h12.704v2.656h-12.704q-1.504 0-2.848-0.576t-2.336-1.568-1.568-2.32-0.576-2.864z"></path>
</svg>
