<svg version="1.1" xmlns="http://www.w3.org/2000/svg" fill="currentColor" width="1em" height="1em" viewBox="0 0 32 32">
<path d="M9.376 12.16l6.656-6.656v21.312l-6.656-6.656h-5.312v-8h5.312zM22.016 16.16q0 1.792-0.912 3.2t-2.416 2.144v-10.72q1.504 0.736 2.416 2.16t0.912 3.216zM18.688 4.48q2.016 0.448 3.712 1.536t2.944 2.624 1.952 3.456 0.704 4.064-0.704 4.064-1.952 3.456-2.944 2.624-3.712 1.536v-2.752q1.44-0.416 2.656-1.28t2.112-2.032 1.392-2.608 0.496-3.008q0-1.6-0.496-3.024t-1.392-2.592-2.112-2.032-2.656-1.28v-2.752z"></path>
</svg>
