<svg version="1.1" xmlns="http://www.w3.org/2000/svg" fill="currentColor" width="1em" height="1em" viewBox="0 0 32 32">
<path d="M21.344 12.576l-3.456 3.456 3.456 3.456-1.888 1.888-3.456-3.456-3.456 3.456-1.888-1.888 3.456-3.456-3.456-3.456 1.888-1.888 3.456 3.456 3.456-3.456zM16 2.72q2.784 0 5.216 1.040t4.24 2.848 2.848 4.24 1.040 5.184-1.040 5.184-2.848 4.24-4.24 2.848-5.216 1.040-5.216-1.040-4.24-2.848-2.848-4.24-1.040-5.184 1.040-5.184 2.848-4.24 4.24-2.848 5.216-1.040zM16 26.688q2.208 0 4.16-0.832t3.392-2.288 2.288-3.392 0.848-4.144-0.848-4.144-2.288-3.392-3.392-2.288-4.16-0.832-4.16 0.832-3.392 2.288-2.288 3.392-0.848 4.144 0.848 4.144 2.288 3.392 3.392 2.288 4.16 0.832z"></path>
</svg>
