<svg version="1.1" xmlns="http://www.w3.org/2000/svg" fill="currentColor" width="1em" height="1em" viewBox="0 0 8.4667 8.4667">
<g transform="translate(-113.31 -123.48)">
<path d="m113.95 128.32c0.25228 0.74356 0.98257 1.2614 1.766 1.2614 0.80996 0 1.5004-0.51784 1.7792-1.2481h1.288v1.2348h1.2348v-1.2348h1.2348v-1.2216h-3.7444c-0.27884-0.7834-1.0091-1.2747-1.7925-1.2747-0.19916 0-0.39833 0.0398-0.5975 0.10622-0.98257 0.33195-1.5137 1.3942-1.1685 2.3768zm1.766-1.2481c0.34523 0 0.62407 0.29212 0.62407 0.63734 0 0.33195-0.27884 0.62406-0.62407 0.62406-0.34522 0-0.63733-0.29211-0.63733-0.62406 0-0.34522 0.29211-0.63734 0.63733-0.63734z" />
</g>
</svg>
