<svg version="1.1" xmlns="http://www.w3.org/2000/svg" fill="currentColor" width="1em" height="1em" viewBox="0 0 32 32">
<path d="M14.624 21.28q0.032 0.192 0.032 0.368v0.368q0 0.512-0.048 0.992t-0.208 0.96h9.632v-2.688h-9.408zM5.344 7.936v7.008q-1.504 0.384-2.688 1.376v-8.384h2.688zM26.688 6.656q1.088 0 1.872 0.784t0.784 1.904v7.968q0 1.12-0.784 1.904t-1.872 0.784h-12.32q-0.288-1.088-0.896-2.016t-1.44-1.616-1.856-1.136-2.176-0.544l0.032-8.032q0-1.12 0.768-1.888t1.888-0.768h6.656l2.656 2.656h6.688zM11.232 24.576q0.16-0.256 0.32-0.608 0.448-0.896 0.448-1.952 0-0.192-0.016-0.368t-0.048-0.368q-0.064-0.352-0.16-0.672t-0.256-0.608q-0.576-1.248-1.712-1.952t-2.48-0.704q-0.992 0-1.984 0.416-1.088 0.544-1.808 1.536t-0.848 2.24q-0.032 0.032 0 0.064-0.032 0.16-0.032 0.416 0 0.96 0.368 1.808t1.008 1.488 1.488 1.008 1.808 0.368q0.736 0 1.376-0.208t1.184-0.56l0.768 0.736v0.032l2.688 2.656 1.312-1.344zM7.328 24q-0.832 0-1.424-0.576t-0.592-1.408 0.592-1.424 1.424-0.592 1.424 0.592 0.592 1.424-0.592 1.408-1.424 0.576z"></path>
</svg>
