<svg version="1.1" xmlns="http://www.w3.org/2000/svg" fill="currentColor" width="1em" height="1em" viewBox="0 0 32 32">
<path d="M19.52 2.592v2.784h-9.824v10.176q-0.992-0.288-2.112-0.288h-0.352t-0.352 0.032v-9.92q0-1.152 0.832-1.968t1.984-0.816h9.824zM29.344 16.608v11.232q0 1.152-0.816 1.984t-2 0.832h-9.792l1.376-1.376-3.392-3.36q0.576-1.344 0.576-2.944 0-1.824-0.752-3.36t-2.032-2.592v-6.016q0-1.152 0.816-1.984t1.968-0.832h5.632zM25.792 16.608l-6.272-6.304v6.304h6.272zM15.296 29.28l-1.408 1.408-3.616-3.616q-0.576 0.384-1.264 0.608t-1.424 0.224q-1.024 0-1.92-0.384t-1.568-1.056-1.056-1.568-0.384-1.92 0.4-1.92 1.072-1.568 1.568-1.056 1.888-0.384q1.024 0 1.92 0.384t1.568 1.056 1.056 1.568 0.384 1.92q0 0.736-0.224 1.424t-0.608 1.264zM9.696 22.976q0-0.864-0.624-1.488t-1.488-0.624q-0.192 0-0.368 0.032t-0.336 0.096q-0.608 0.224-1.008 0.752t-0.4 1.232q0 0.864 0.624 1.488t1.488 0.624 1.488-0.624 0.624-1.488z"></path>
</svg>
