<svg version="1.1" xmlns="http://www.w3.org/2000/svg" fill="currentColor" width="1em" height="1em" viewBox="0 0 32 32">
<path d="M28.576 18.144l-2.816 3.2q-0.48 0.64-1.184 0.976t-1.504 0.336h-8.448q0.032-0.16 0.032-0.32v-0.32q0-1.44-0.512-2.72t-1.408-2.256-2.112-1.584-2.624-0.736v-1.888q0-0.736 0.272-1.376t0.736-1.104 1.104-0.736 1.344-0.272h11.616q0.8 0 1.504 0.336t1.184 0.976l2.816 3.168q0.768 0.96 0.768 2.176t-0.768 2.144zM5.312 3.936q-1.088 0-1.872 0.768t-0.784 1.888v9.76q1.152-0.96 2.656-1.408v-8.352h16.032v-2.656h-16.032zM14.656 28l-1.312 1.344-2.688-2.656v-0.032l-0.768-0.736q-0.544 0.352-1.184 0.56t-1.376 0.208q-0.96 0-1.824-0.368t-1.488-1.008-0.992-1.488-0.368-1.808 0.368-1.824 0.992-1.488 1.488-0.992 1.824-0.368h0.336t0.336 0.064q0.864 0.128 1.584 0.528t1.264 1.024 0.848 1.408 0.304 1.648q0 0.704-0.208 1.36t-0.56 1.2l0.736 0.768h0.032zM9.344 22.016q0-0.832-0.592-1.424t-1.424-0.592-1.424 0.592-0.592 1.424 0.592 1.408 1.424 0.576 1.424-0.576 0.592-1.408z"></path>
</svg>
