<svg version="1.1" xmlns="http://www.w3.org/2000/svg" fill="currentColor" width="1em" height="1em" viewBox="0 0 32 32">
<path d="M22.688 10.656h-13.344v2.688h13.344v-2.688zM22.688 16h-13.344v2.656h13.344v-2.656zM18.656 21.344h-9.312v2.656h9.312v-2.656zM16 5.312q-0.544 0-0.944 0.4t-0.4 0.944 0.4 0.944 0.944 0.4 0.944-0.4 0.4-0.944-0.4-0.944-0.944-0.4zM25.344 5.312q1.12 0 1.888 0.784t0.768 1.904v18.688q0 1.12-0.768 1.888t-1.888 0.768h-18.688q-1.12 0-1.888-0.768t-0.768-1.888v-18.688q0-1.12 0.768-1.904t1.888-0.784h5.568q0.448-1.152 1.456-1.904t2.32-0.752 2.32 0.752 1.456 1.904h5.568z"></path>
</svg>
