<svg version="1.1" xmlns="http://www.w3.org/2000/svg" fill="currentColor" width="1em" height="1em" viewBox="0 0 32 32">
<path d="M9.344 6.624q0-1.12-0.768-1.888t-1.888-0.768q-0.576 0-1.056 0.208t-0.848 0.56-0.576 0.848-0.208 1.040q0 1.12 0.784 1.904t1.904 0.784q0.544 0 1.040-0.208t0.848-0.576 0.56-0.848 0.208-1.056zM16 3.968q1.12 0 1.888 0.768t0.768 1.888q0 0.576-0.208 1.056t-0.56 0.848-0.848 0.576-1.040 0.208q-1.12 0-1.904-0.784t-0.784-1.904q0-0.544 0.208-1.040t0.576-0.848 0.848-0.56 1.056-0.208zM25.344 3.968q1.12 0 1.888 0.768t0.768 1.888q0 0.576-0.208 1.056t-0.56 0.848-0.848 0.576-1.040 0.208q-1.12 0-1.904-0.784t-0.784-1.904q0-0.544 0.208-1.040t0.576-0.848 0.848-0.56 1.056-0.208zM6.688 13.28q1.12 0 1.888 0.784t0.768 1.904-0.768 1.888-1.888 0.768q-0.576 0-1.056-0.208t-0.848-0.576-0.576-0.848-0.208-1.024 0.208-1.040 0.576-0.864 0.848-0.576 1.056-0.208zM16 13.28q1.12 0 1.888 0.784t0.768 1.904-0.768 1.888-1.888 0.768q-0.576 0-1.056-0.208t-0.848-0.576-0.576-0.848-0.208-1.024 0.208-1.040 0.576-0.864 0.848-0.576 1.056-0.208zM25.344 13.28q1.12 0 1.888 0.784t0.768 1.904-0.768 1.888-1.888 0.768q-0.576 0-1.056-0.208t-0.848-0.576-0.576-0.848-0.208-1.024 0.208-1.040 0.576-0.864 0.848-0.576 1.056-0.208zM6.688 22.656q0.544 0 1.040 0.208t0.848 0.576 0.56 0.848 0.208 1.056q0 1.12-0.768 1.888t-1.888 0.768q-0.576 0-1.056-0.208t-0.848-0.56-0.576-0.848-0.208-1.040q0-1.12 0.784-1.904t1.904-0.784zM16 22.656q0.544 0 1.040 0.208t0.848 0.576 0.56 0.848 0.208 1.056q0 1.12-0.768 1.888t-1.888 0.768q-0.576 0-1.056-0.208t-0.848-0.56-0.576-0.848-0.208-1.040q0-1.12 0.784-1.904t1.904-0.784zM25.344 22.656q0.544 0 1.040 0.208t0.848 0.576 0.56 0.848 0.208 1.056q0 1.12-0.768 1.888t-1.888 0.768q-0.576 0-1.056-0.208t-0.848-0.56-0.576-0.848-0.208-1.040q0-1.12 0.784-1.904t1.904-0.784z"></path>
</svg>
