<svg version="1.1" xmlns="http://www.w3.org/2000/svg" fill="currentColor" width="1em" height="1em" viewBox="0 0 32 32">
<path d="M24 12l-10.656 10.656-6.688-6.656 1.888-1.888 4.8 4.768 8.768-8.768zM16 2.656q2.752 0 5.184 1.056t4.24 2.864 2.864 4.24 1.056 5.184-1.056 5.184-2.864 4.24-4.24 2.864-5.184 1.056-5.184-1.056-4.24-2.864-2.864-4.24-1.056-5.184 1.056-5.184 2.864-4.24 4.24-2.864 5.184-1.056zM16 26.688q2.208 0 4.16-0.848t3.392-2.288 2.288-3.392 0.848-4.16-0.848-4.16-2.288-3.392-3.392-2.288-4.16-0.848-4.16 0.848-3.392 2.288-2.288 3.392-0.848 4.16 0.848 4.16 2.288 3.392 3.392 2.288 4.16 0.848z"></path>
</svg>
