<svg fill="currentColor" width="1em" height="1em" viewBox="0 0 16 12" xmlns="http://www.w3.org/2000/svg">
    <path d="m6.3156 8.2719c0 0.65312-0.34063 1.7219-1.1469 1.7219s-1.1469-1.0688-1.1469-1.7219c0-0.65313 0.34063-1.7219 1.1469-1.7219s1.1469 1.0688 1.1469 1.7219zm9.1844-1.5781c0 0.99688-0.1 2.0531-0.5469 2.9688-1.1843 2.3938-4.4406 2.3375-6.7718 2.3375-2.3688 0-5.8188 0.0844-7.05-2.3375-0.45625-0.90625-0.63125-1.9719-0.63125-2.9688 0-1.3094 0.43438-2.5469 1.2969-3.55-0.16251-0.49375-0.24063-1.0125-0.24063-1.525 0-0.67188 0.15313-1.0094 0.45625-1.6188 1.4156 0 2.3219 0.28125 3.4 1.125 0.90625-0.21562 1.8375-0.3125 2.7719-0.3125 0.84375 0 1.6938 0.090625 2.5125 0.2875 1.0625-0.83438 1.9687-1.1 3.3687-1.1 0.3063 0.60938 0.4563 0.94688 0.4563 1.6188 0 0.5125-0.0813 1.0219-0.2407 1.5062 0.8594 1.0125 1.2188 2.2594 1.2188 3.5688zm-2.0094 1.5781c0-1.3719-0.8344-2.5812-2.2968-2.5812-0.5907 0-1.1563 0.10625-1.75 0.1875-0.46562 0.07187-0.93125 0.1-1.4094 0.1-0.475 0-0.94063-0.02813-1.4094-0.1-0.58437-0.08125-1.1562-0.1875-1.75-0.1875-1.4625 0-2.2969 1.2094-2.2969 2.5812 0 2.7437 2.5125 3.1656 4.7 3.1656h1.5063c2.1969 0 4.7062-0.4187 4.7062-3.1656zm-2.5812-1.7219c-0.8063 0-1.1469 1.0688-1.1469 1.7219 0 0.65312 0.3406 1.7219 1.1469 1.7219 0.8062 0 1.1468-1.0688 1.1468-1.7219 0-0.65313-0.3406-1.7219-1.1468-1.7219z" />
</svg>