<svg version="1.1" xmlns="http://www.w3.org/2000/svg" fill="currentColor" width="1em" height="1em" viewBox="0 0 32 32">
<path d="M16.128 24.736q2.4-2.176 4.336-3.984t3.312-3.424 2.128-3.088 0.752-2.912q0-0.992-0.352-1.856t-0.976-1.488-1.472-0.976-1.84-0.352q-0.768 0-1.52 0.24t-1.376 0.656-1.12 1.008-0.752 1.264h-2.496q-0.256-0.672-0.752-1.264t-1.12-1.008-1.36-0.656-1.504-0.24q-0.992 0-1.856 0.352t-1.488 0.976-0.976 1.488-0.352 1.856q0 1.44 0.752 2.912t2.128 3.088 3.312 3.424 4.304 3.984l0.16 0.128zM22.016 4q1.536 0 2.88 0.56t2.32 1.552 1.552 2.336 0.576 2.88q0 1.888-0.816 3.648t-2.32 3.584-3.6 3.824-4.688 4.336l-1.92 1.76-1.92-1.76q-2.592-2.336-4.688-4.336t-3.6-3.824-2.32-3.584-0.816-3.648q0-1.536 0.576-2.88t1.568-2.336 2.336-1.552 2.88-0.56q1.728 0 3.312 0.752t2.672 2.032q1.088-1.28 2.672-2.032t3.344-0.752z"></path>
</svg>
