<svg version="1.1" xmlns="http://www.w3.org/2000/svg" fill="currentColor" width="1em" height="1em" viewBox="0 0 32 32">
<path d="M14.656 21.344h2.688v2.656h-2.688v-2.656zM16 2.688q2.752 0 5.184 1.040t4.24 2.848 2.864 4.24 1.056 5.184-1.056 5.184-2.864 4.24-4.24 2.864-5.184 1.056-5.184-1.056-4.24-2.864-2.864-4.24-1.056-5.184 1.056-5.184 2.864-4.24 4.24-2.848 5.184-1.040zM16 26.688q2.208 0 4.144-0.848t3.392-2.288 2.288-3.392 0.832-4.16-0.832-4.144-2.288-3.376-3.392-2.288-4.144-0.848-4.144 0.848-3.392 2.288-2.288 3.376-0.832 4.144 0.832 4.16 2.288 3.392 3.392 2.288 4.144 0.848zM16 8q1.12 0 2.080 0.416t1.696 1.152 1.152 1.696 0.416 2.080q0 1.248-0.624 2.032t-1.376 1.44-1.376 1.36-0.624 1.824h-2.688q0-1.088 0.304-1.808t0.736-1.248 0.96-0.896 0.96-0.752 0.736-0.832 0.304-1.12q0-1.12-0.768-1.888t-1.888-0.768-1.888 0.768-0.768 1.888h-2.688q0-1.12 0.416-2.080t1.152-1.696 1.712-1.152 2.064-0.416z"></path>
</svg>
