<svg version="1.1" xmlns="http://www.w3.org/2000/svg" fill="currentColor" width="1em" height="1em" viewBox="0 0 32 32">
<path d="M10.4 2.656h11.2q1.6 0 3.008 0.608t2.464 1.664 1.664 2.464 0.608 3.008v11.2q0 1.6-0.608 3.008t-1.664 2.464-2.464 1.664-3.008 0.608h-11.2q-1.6 0-3.008-0.608t-2.464-1.664-1.664-2.464-0.608-3.008v-11.2q0-1.6 0.608-3.008t1.664-2.464 2.464-1.664 3.008-0.608zM10.144 5.312q-0.992 0-1.872 0.384t-1.536 1.040-1.040 1.536-0.384 1.872v11.712q0 0.992 0.384 1.872t1.040 1.536 1.536 1.040 1.872 0.384h11.712q0.992 0 1.872-0.384t1.536-1.040 1.040-1.536 0.384-1.872v-11.712q0-0.992-0.384-1.872t-1.040-1.536-1.536-1.040-1.872-0.384h-11.712zM23.008 7.328q0.704 0 1.184 0.48t0.48 1.184-0.48 1.184-1.184 0.48-1.184-0.48-0.48-1.184 0.48-1.184 1.184-0.48zM16 9.344q1.376 0 2.592 0.528t2.128 1.424 1.44 2.112 0.528 2.592-0.528 2.592-1.44 2.128-2.128 1.44-2.592 0.528-2.592-0.528-2.112-1.44-1.424-2.128-0.528-2.592 0.528-2.592 1.424-2.112 2.112-1.424 2.592-0.528zM16 12q-0.832 0-1.552 0.32t-1.264 0.864-0.864 1.264-0.32 1.552 0.32 1.552 0.864 1.264 1.264 0.864 1.552 0.32 1.552-0.32 1.264-0.864 0.864-1.264 0.32-1.552-0.32-1.552-0.864-1.264-1.264-0.864-1.552-0.32z"></path>
</svg>
