<svg version="1.1" xmlns="http://www.w3.org/2000/svg" fill="currentColor" width="1em" height="1em" viewBox="0 0 32 32">
<path d="M7.36 11.968q0.832 0 1.408-0.576t0.576-1.408-0.576-1.424-1.408-0.592-1.424 0.592-0.592 1.424 0.592 1.408 1.424 0.576zM23.232 15.424q0.768 0.768 0.768 1.888t-0.768 1.888l-6.656 6.656q-0.352 0.352-0.848 0.576t-1.040 0.224-1.040-0.224-0.848-0.576l-9.312-9.312q-0.8-0.8-0.8-1.888v-6.688q0-1.12 0.768-1.888t1.888-0.768h6.688q1.088 0 1.856 0.768zM18.080 7.584l1.312-1.312 9.152 9.152q0.8 0.736 0.8 1.888 0 1.12-0.768 1.888l-7.168 7.168-1.344-1.344 7.616-7.712z"></path>
</svg>
