<svg version="1.1" xmlns="http://www.w3.org/2000/svg" fill="currentColor" width="1em" height="1em" viewBox="0 0 32 32">
<path d="M16 29.344q-1.12 0-1.888-0.784t-0.768-1.872h5.312q0 1.088-0.768 1.872t-1.888 0.784zM26.656 24v1.344h-21.312v-1.344l2.656-2.656v-6.656q0-1.536 0.4-2.912t1.168-2.496 1.888-1.904 2.56-1.104v-0.896q0-0.832 0.576-1.424t1.408-0.592 1.408 0.592 0.576 1.424v0.896q1.44 0.32 2.56 1.104t1.888 1.904 1.168 2.496 0.4 2.912v6.656zM21.344 14.688q0-1.248-0.368-2.336t-1.056-1.904-1.68-1.28-2.24-0.464-2.24 0.464-1.664 1.28-1.040 1.904-0.368 2.336v8h10.656v-8z"></path>
</svg>
