<svg version="1.1" xmlns="http://www.w3.org/2000/svg" fill="currentColor" width="1em" height="1em" viewBox="0 0 32 32">
<path d="M29.056 12.704q0.384 1.536 0.384 3.2 0 2.784-1.056 5.232t-2.88 4.272-4.272 2.88-5.232 1.056-5.232-1.056-4.272-2.88-2.88-4.272-1.056-5.232q0-1.664 0.384-3.136v-0.096q0.544-2.208 1.776-4.064t2.96-3.232 3.872-2.128 4.512-0.752q2.336 0 4.448 0.768t3.824 2.112 2.928 3.184 1.76 4.016q0 0.032 0.016 0.064t0.016 0.064zM20.064 10.592l-2.688-0.032-0.064 10.752 2.688 0.032zM14.688 10.56l-2.688-0.032-0.064 10.752 2.688 0.032z"></path>
</svg>
