<svg version="1.1" xmlns="http://www.w3.org/2000/svg" fill="currentColor" width="1em" height="1em" viewBox="0 0 32 32">
<path d="M12 10.464l2.688 0.032-0.064 10.752-2.688-0.032zM16.064 2.432q2.784 0 5.232 1.072t4.256 2.912 2.848 4.288 1.040 5.232-1.072 5.232-2.912 4.256-4.288 2.848-5.232 1.040-5.232-1.072-4.256-2.912-2.848-4.288-1.040-5.232 1.072-5.232 2.912-4.256 4.288-2.848 5.232-1.040zM15.936 26.624q2.24 0 4.208-0.832t3.424-2.288 2.32-3.408 0.864-4.16q0-2.24-0.832-4.208t-2.288-3.424-3.408-2.32-4.16-0.864q-2.24 0-4.208 0.832t-3.424 2.288-2.32 3.408-0.864 4.16q0 2.24 0.832 4.208t2.288 3.424 3.408 2.32 4.16 0.864zM17.376 10.496l2.688 0.032-0.064 10.752-2.688-0.032z"></path>
</svg>
