<svg version="1.1" xmlns="http://www.w3.org/2000/svg" fill="currentColor" width="1em" height="1em" viewBox="0 0 32 32">
<path d="M17.344 12h7.328l-7.328-7.328v7.328zM8 2.656h10.656l8.032 8v16.032q0 1.12-0.784 1.888t-1.904 0.768h-16q-1.12 0-1.904-0.784t-0.784-1.872v-21.376q0-1.12 0.784-1.888t1.904-0.768zM14.56 16.576q0.832 1.856 2.048 2.88l0.544 0.416q-0.864 0.16-2.016 0.464t-2.432 0.784v0l-0.16 0.064 0.672-1.408q0.928-1.76 1.344-3.2zM23.232 21.664q0.16-0.16 0.24-0.384t0.112-0.48q0.032-0.416-0.16-0.736-0.544-0.928-3.040-0.928l-1.728 0.096-1.152-0.768q-0.64-0.544-1.184-1.424t-0.96-2l0.064-0.192q0.16-0.672 0.304-1.376t0.176-1.344-0.064-1.2-0.448-0.88q-0.288-0.32-0.8-0.32h-0.32q-0.384 0-0.672 0.32t-0.384 0.704q-0.192 0.672-0.224 1.216t0.016 1.040 0.176 0.992 0.32 1.104v0.032q-0.256 0.896-0.592 1.888t-0.848 2.016l-1.28 2.4-1.184 0.672q-1.216 0.736-1.808 1.504t-0.72 1.312q-0.032 0.384 0.096 0.704l0.032 0.096 0.64 0.416 0.576 0.128q0.832 0 1.776-0.992t2.192-3.104l0.224-0.096q1.024-0.352 2.352-0.576t3.056-0.416q1.024 0.512 2.128 0.752t1.872 0.24q0.8 0 1.216-0.416zM22.688 20.736l0.096 0.128q0 0.16-0.128 0.192h-0.288q-0.448 0-1.12-0.16t-1.408-0.512q0.096-0.128 0.288-0.128 1.408 0 1.92 0.176t0.64 0.304zM10.432 22.656q-0.64 1.216-1.216 1.872t-1.024 0.816q0.064-0.384 0.464-0.992t1.136-1.28zM14.464 13.44q-0.256-0.896-0.256-1.6t0.16-1.12l0.096-0.16 0.192 0.064q0.32 0.448 0.128 1.472l-0.032 0.192-0.224 1.12z"></path>
</svg>
