<svg version="1.1" xmlns="http://www.w3.org/2000/svg" fill="currentColor" width="1em" height="1em" viewBox="0 0 32 32">
<path d="M13.344 9.984l8 6.016-8 6.016v-12.032zM16 2.656q2.752 0 5.184 1.056t4.24 2.864 2.864 4.24 1.056 5.184-1.056 5.184-2.864 4.24-4.24 2.864-5.184 1.056-5.184-1.056-4.24-2.864-2.864-4.24-1.056-5.184 1.056-5.184 2.864-4.24 4.24-2.864 5.184-1.056zM16 26.688q2.176 0 4.128-0.848t3.408-2.304 2.304-3.408 0.848-4.128-0.848-4.128-2.304-3.408-3.408-2.304-4.128-0.848-4.128 0.848-3.408 2.304-2.304 3.408-0.848 4.128 0.848 4.128 2.304 3.408 3.408 2.304 4.128 0.848z"></path>
</svg>
