<svg version="1.1" xmlns="http://www.w3.org/2000/svg" fill="currentColor" width="1em" height="1em" viewBox="0 0 32 32">
<path d="M24 10.688q1.12 0 1.888 0.768t0.768 1.888v13.344q0 1.12-0.768 1.888t-1.888 0.768h-16q-1.12 0-1.888-0.784t-0.768-1.872v-13.344q0-1.12 0.768-1.888t1.888-0.768h1.344v-2.688q0-1.376 0.528-2.592t1.424-2.112 2.112-1.424 2.592-0.528 2.592 0.528 2.112 1.424 1.424 2.112 0.528 2.592v2.688h1.344zM16 22.688q1.12 0 1.888-0.784t0.768-1.904-0.768-1.888-1.888-0.768-1.888 0.768-0.768 1.888 0.768 1.904 1.888 0.784zM20 8q0-0.864-0.304-1.584t-0.848-1.264-1.264-0.848-1.584-0.304-1.584 0.304-1.264 0.848-0.848 1.264-0.304 1.584v2.688h8v-2.688z"></path>
</svg>
