<svg version="1.1" xmlns="http://www.w3.org/2000/svg" fill="currentColor" width="1em" height="1em" viewBox="0 0 32 32">
<path d="M4 16q0-1.856 0.608-3.536t1.664-3.040 2.528-2.32 3.2-1.408v2.784q-1.152 0.416-2.144 1.152t-1.696 1.712-1.104 2.16-0.4 2.496q0 1.664 0.64 3.104t1.728 2.56l2.976-3.008v8h-8l3.136-3.136q-1.44-1.44-2.288-3.376t-0.848-4.144zM14.656 20h2.688v2.656h-2.688v-2.656zM24.864 8.48q1.44 1.44 2.288 3.376t0.848 4.144q0 1.856-0.608 3.536t-1.664 3.040-2.528 2.32-3.2 1.408v-2.784q1.152-0.416 2.144-1.152t1.696-1.712 1.104-2.16 0.4-2.496q0-1.664-0.64-3.104t-1.728-2.56l-2.976 3.008v-8h8zM14.656 9.344h2.688v8h-2.688v-8z"></path>
</svg>
