<svg version="1.1" xmlns="http://www.w3.org/2000/svg" fill="currentColor" width="1em" height="1em" viewBox="0 0 32 32">
<path d="M23.872 23.2q1.312-1.44 2.064-3.264t0.752-3.936q0-1.696-0.496-3.216t-1.376-2.816-2.112-2.288-2.704-1.568v0.544q0 1.12-0.768 1.888t-1.888 0.768h-2.688v2.688q0 0.544-0.384 0.944t-0.928 0.4h-2.688v2.656h8q0.544 0 0.944 0.4t0.4 0.944v4h1.344q0.896 0 1.584 0.512t0.944 1.344zM14.656 24q-1.12 0-1.888-0.768t-0.768-1.888v-1.344l-6.4-6.4q-0.128 0.576-0.208 1.168t-0.080 1.232q0 2.048 0.72 3.856t1.984 3.232 2.976 2.336 3.664 1.168v-2.592zM16 2.656q2.752 0 5.184 1.056t4.24 2.864 2.864 4.24 1.056 5.184-1.056 5.184-2.864 4.24-4.24 2.864-5.184 1.056-5.184-1.056-4.24-2.864-2.864-4.24-1.056-5.184 1.056-5.184 2.864-4.24 4.24-2.864 5.184-1.056z"></path>
</svg>
