<svg version="1.1" xmlns="http://www.w3.org/2000/svg" fill="currentColor" width="1em" height="1em" viewBox="0 0 32 32">
<path d="M14.72 21.408h2.592v2.592h-2.592v-2.592zM16.448 6.72q1.728 0.064 2.944 0.896t1.76 2.048 0.368 2.656-1.2 2.752q-0.544 0.64-1.264 1.12t-1.168 1.024-0.512 1.184-0.064 1.28h-2.592q0-1.088 0.064-1.984t0.512-1.536 1.168-1.072 1.264-0.88q0.8-0.736 1.088-1.552t0.128-1.536-0.8-1.216-1.696-0.592q-1.088 0-1.84 0.752t-0.752 1.84h-2.592q0-1.088 0.4-2.032t1.104-1.648 1.648-1.104 2.032-0.4z"></path>
</svg>
