<svg fill="currentColor" width="1em" height="1em" viewBox="0 0 16 16" version="1.1" xmlns:svg="http://www.w3.org/2000/svg">
  <path d="m 10.1,9.75 h 1.05 c 0.175,0 0.35,-0.175 0.35,-0.35 V 5.725 c 0,-0.175 -0.175,-0.35 -0.35,-0.35 H 10.1 c -0.175,0 -0.35,0.175 -0.35,0.35 V 9.4 c 0,0.175 0.175,0.35 0.35,0.35 z m 2.625,0 h 1.05 c 0.175,0 0.35,-0.175 0.35,-0.35 V 3.1 c 0,-0.175 -0.175,-0.35 -0.35,-0.35 h -1.05 c -0.175,0 -0.35,0.175 -0.35,0.35 v 6.3 c 0,0.175 0.175,0.35 0.35,0.35 z m -7.875,0 H 5.9 C 6.075,9.75 6.25,9.575 6.25,9.4 V 7.475 C 6.25,7.3 6.075,7.125 5.9,7.125 H 4.85 C 4.675,7.125 4.5,7.3 4.5,7.475 V 9.4 c 0,0.175 0.175,0.35 0.35,0.35 z m 2.625,0 h 1.05 C 8.7,9.75 8.875,9.575 8.875,9.4 V 3.975 C 8.875,3.8 8.7,3.625 8.525,3.625 H 7.475 C 7.3,3.625 7.125,3.8 7.125,3.975 V 9.4 c 0,0.175 0.175,0.35 0.35,0.35 z m 7.0875,1.75 H 2.75 V 3.1875 C 2.75,2.9457813 2.5542187,2.75 2.3125,2.75 H 1.4375 C 1.1957812,2.75 1,2.9457813 1,3.1875 v 9.1875 c 0,0.483175 0.3918355,0.875 0.875,0.875 H 14.5625 C 14.804175,13.25 15,13.054175 15,12.8125 v -0.875 C 15,11.695825 14.804175,11.5 14.5625,11.5 Z" />
</svg>
