<svg version="1.1" xmlns="http://www.w3.org/2000/svg" fill="currentColor" width="1em" height="1em" viewBox="0 0 32 32">
<path d="M6.624 13.216q0 1.344 0.512 2.544t1.408 2.096 2.096 1.408 2.576 0.512q1.344 0 2.544-0.512t2.096-1.408 1.408-2.096 0.512-2.544q0-1.376-0.512-2.576t-1.408-2.096-2.096-1.408-2.544-0.512q-1.376 0-2.576 0.512t-2.096 1.408-1.408 2.096-0.512 2.576zM4 13.216q0-1.92 0.72-3.6t1.968-2.928 2.928-1.968 3.6-0.72 3.6 0.72 2.928 1.968 1.968 2.928 0.72 3.6q0 1.216-0.288 2.304t-0.832 2.080l6.688 6.688q-0.096 0.992-0.544 1.792-0.352 0.672-1.104 1.264t-2.064 0.656l-6.688-6.688q-0.992 0.544-2.080 0.832t-2.304 0.288q-1.92 0-3.6-0.72t-2.928-1.968-1.968-2.928-0.72-3.6z"></path>
</svg>
