<svg version="1.1" xmlns="http://www.w3.org/2000/svg" fill="currentColor" width="1em" height="1em" viewBox="0 0 32 32">
<path d="M20 15.968q0 0.832-0.32 1.552t-0.864 1.264-1.264 0.864-1.552 0.32-1.552-0.32-1.264-0.864-0.864-1.264-0.32-1.552 0.32-1.552 0.864-1.264 1.264-0.864 1.552-0.32 1.552 0.32 1.264 0.864 0.864 1.264 0.32 1.552zM16 9.28q-2.592 0-4.448 0.784t-3.104 1.856-1.952 2.208-0.992 1.84q0.288 0.704 0.992 1.84t1.952 2.208 3.104 1.84 4.448 0.768 4.448-0.768 3.104-1.84 1.952-2.208 0.992-1.84q-0.288-0.704-0.992-1.84t-1.952-2.208-3.104-1.856-4.448-0.784zM16 6.624q2.016 0 3.648 0.4t2.944 1.056 2.32 1.504 1.776 1.712q1.76 2.048 2.656 4.672-0.896 2.624-2.656 4.672-0.768 0.864-1.776 1.712t-2.32 1.504-2.944 1.056-3.648 0.4-3.648-0.4-2.944-1.056-2.32-1.504-1.776-1.712q-1.76-2.048-2.656-4.672 0.896-2.624 2.656-4.672 0.768-0.864 1.776-1.712t2.32-1.504 2.944-1.056 3.648-0.4v0z"></path>
</svg>
