<svg version="1.1" xmlns="http://www.w3.org/2000/svg" fill="currentColor" width="1em" height="1em" viewBox="0 0 32 32">
<path d="M24 21.568q0.8 0 1.52 0.304t1.248 0.832 0.832 1.248 0.304 1.52-0.304 1.504-0.832 1.232-1.248 0.832-1.52 0.304-1.52-0.304-1.248-0.832-0.832-1.232-0.304-1.504q0-0.224 0.032-0.448t0.096-0.416l-9.504-5.568q-0.544 0.512-1.232 0.8t-1.488 0.288q-0.832 0-1.552-0.32t-1.264-0.864-0.864-1.264-0.32-1.552 0.32-1.552 0.864-1.264 1.264-0.864 1.552-0.32q0.8 0 1.488 0.288t1.232 0.8l9.408-5.504q-0.064-0.224-0.096-0.448t-0.032-0.48q0-0.832 0.32-1.552t0.864-1.264 1.264-0.864 1.552-0.32 1.552 0.32 1.264 0.864 0.864 1.264 0.32 1.552-0.32 1.552-0.864 1.264-1.264 0.864-1.552 0.32q-0.8 0-1.488-0.288t-1.232-0.768l-9.408 5.472q0.064 0.224 0.096 0.448t0.032 0.48-0.032 0.48-0.096 0.448l9.504 5.536q1.12-1.024 2.624-1.024z"></path>
</svg>
