<svg version="1.1" xmlns="http://www.w3.org/2000/svg" fill="currentColor" width="1em" height="1em" viewBox="0 0 32 32">
<path d="M28.576 20.896l-2.816 3.2q-0.48 0.64-1.184 0.976t-1.504 0.336h-7.008q0-1.632-0.64-3.088t-1.728-2.544-2.544-1.712-3.088-0.624h-0.064v-1.856q0-0.736 0.272-1.36t0.752-1.104 1.104-0.752 1.328-0.272h11.616q0.8 0 1.504 0.336t1.184 0.976l2.816 3.168q0.768 0.96 0.768 2.176t-0.768 2.144zM5.344 6.688q-1.12 0-1.888 0.784t-0.768 1.872v10.176q1.184-1.088 2.656-1.6v-8.576h16v-2.656h-16zM9.344 21.344v8l4-4zM6.688 29.344l-0.032-8-4 4z"></path>
</svg>
