<svg version="1.1" xmlns="http://www.w3.org/2000/svg" fill="currentColor" width="1em" height="1em" viewBox="0 0 32 32">
<path d="M24.608 16l-5.952-6.016v6.016h5.952zM28 16v10.656q0 1.12-0.784 1.904t-1.904 0.784h-10.688q-0.512 0-0.96-0.192 0.448-0.832 0.72-1.808t0.272-2.032q0-1.792-0.736-3.328t-1.952-2.624l0.032-8.704q0-1.12 0.768-1.888t1.888-0.768h5.312zM9.312 2.656h9.344v2.656h-9.344v12.448q-1.28-0.448-2.688-0.448v-12q0-1.088 0.784-1.872t1.904-0.784zM1.344 25.312l4-3.968v8zM12 25.344l-4 3.968v-7.968z"></path>
</svg>
