<svg version="1.1" xmlns="http://www.w3.org/2000/svg" fill="currentColor" width="1em" height="1em" viewBox="0 0 32 32">
<path d="M16 2.656q2.752 0 5.184 1.056t4.24 2.864 2.864 4.24 1.056 5.184-1.056 5.184-2.864 4.24-4.24 2.864-5.184 1.056-5.184-1.056-4.24-2.864-2.864-4.24-1.056-5.184 1.056-5.184 2.864-4.24 4.24-2.864 5.184-1.056zM16 26.656q2.208 0 4.144-0.832t3.392-2.288 2.288-3.392 0.832-4.144-0.832-4.144-2.288-3.392-3.392-2.288-4.144-0.832-4.144 0.832-3.392 2.288-2.288 3.392-0.832 4.144 0.832 4.144 2.288 3.392 3.392 2.288 4.144 0.832zM21.344 10.656h-10.688v10.688h10.688v-10.688z"></path>
</svg>
