<svg version="1.1" xmlns="http://www.w3.org/2000/svg" fill="currentColor" width="1em" height="1em" viewBox="0 0 32 32">
<path d="M4 5.344q0-1.12 0.768-1.904t1.888-0.784h18.688q1.12 0 1.888 0.784t0.768 1.904v18.656q0 1.12-0.768 1.888t-1.888 0.768h-5.344l-4 4-4-4h-5.344q-1.12 0-1.888-0.768t-0.768-1.888v-18.656zM13.12 24l2.88 2.88 2.88-2.88h6.464v-18.656h-18.688v18.656h6.464zM10.656 12q0-1.12 0.416-2.080t1.152-1.696 1.712-1.152 2.064-0.416q1.12 0 2.080 0.416t1.696 1.152 1.152 1.696 0.416 2.080q0 1.248-0.624 2.032t-1.376 1.44-1.376 1.36-0.624 1.824h-2.688q0-1.088 0.304-1.808t0.736-1.248 0.96-0.896 0.96-0.752 0.736-0.832 0.304-1.12q0-1.12-0.768-1.888t-1.888-0.768-1.888 0.768-0.768 1.888h-2.688zM14.656 20h2.688v2.656h-2.688v-2.656z"></path>
</svg>
