<svg version="1.1" xmlns="http://www.w3.org/2000/svg" fill="currentColor" width="1em" height="1em" viewBox="0 0 32 32">
<path d="M29.952 8q-1.184 1.792-2.848 2.976v0.736q0 2.848-1.072 5.744t-3.136 5.248-5.104 3.824-6.976 1.472q-2.432 0-4.64-0.672t-4.128-1.888q0.352 0.032 0.688 0.048t0.688 0.016q2.016 0 3.824-0.64t3.28-1.824q-1.92-0.032-3.36-1.136t-1.984-2.832q0.256 0.064 0.528 0.096t0.528 0.032q0.832 0 1.504-0.224-0.96-0.192-1.808-0.704t-1.456-1.248-0.96-1.68-0.352-2q0.576 0.288 1.232 0.464t1.36 0.176q-1.152-0.736-1.84-1.984t-0.688-2.752q0-0.768 0.208-1.488t0.56-1.36q2.112 2.592 5.152 4.192t6.624 1.76q-0.128-0.544-0.128-1.312 0-1.184 0.448-2.224t1.216-1.808 1.808-1.216 2.224-0.448q2.56 0 4.192 1.792 0.992-0.192 1.904-0.544t1.744-0.832q-0.704 2.080-2.528 3.168 0.864-0.128 1.696-0.352t1.6-0.576z"></path>
</svg>
