<svg version="1.1" xmlns="http://www.w3.org/2000/svg" fill="currentColor" width="1em" height="1em" viewBox="0 0 32 32">
<path d="M30.656 16h-4q0 2.208-0.832 4.144t-2.288 3.392-3.392 2.288-4.144 0.832q-1.568 0-3.008-0.432t-2.656-1.232l1.92-1.92q0.832 0.448 1.776 0.688t1.968 0.24q1.664 0 3.12-0.624t2.544-1.712 1.712-2.544 0.624-3.12h-4l5.312-5.344zM12 16l-5.312 5.344-5.344-5.344h4q0-2.208 0.832-4.144t2.288-3.392 3.392-2.288 4.144-0.832q1.568 0 3.008 0.432t2.656 1.232l-1.92 1.92q-0.832-0.448-1.776-0.688t-1.968-0.24q-1.664 0-3.12 0.624t-2.544 1.712-1.712 2.544-0.624 3.12h4z"></path>
</svg>
