<svg version="1.1" xmlns="http://www.w3.org/2000/svg" fill="currentColor" width="1em" height="1em" viewBox="0 0 32 32">
<path d="M5.184 15.968q0 0.864 0.32 1.616t0.896 1.312 1.328 0.88 1.616 0.32h5.312v2.528h-5.312q-1.376 0-2.608-0.528t-2.128-1.424-1.424-2.112-0.528-2.592 0.528-2.592 1.424-2.128 2.128-1.44 2.608-0.528h5.312v2.56h-5.312q-0.864 0-1.616 0.32t-1.328 0.88-0.896 1.312-0.32 1.616zM10.656 14.624h10.688v2.688h-10.688v-2.688zM22.688 9.28q1.376 0 2.592 0.528t2.112 1.44 1.424 2.128 0.528 2.592-0.528 2.592-1.424 2.128-2.112 1.44-2.592 0.528h-5.344v-2.56h5.344q0.864 0 1.616-0.32t1.312-0.88 0.88-1.312 0.32-1.616-0.32-1.616-0.88-1.312-1.312-0.88-1.616-0.32h-5.344v-2.56h5.344z"></path>
</svg>
