<svg version="1.1" xmlns="http://www.w3.org/2000/svg" fill="currentColor" width="1em" height="1em" viewBox="0 0 32 32">
<path d="M16 18.080q0.96 0 2.16 0.16t2.464 0.464 2.464 0.784 2.144 1.104 1.52 1.424 0.576 1.728v4.256h-22.656v-4.256q0-0.96 0.576-1.744t1.52-1.408 2.144-1.104 2.464-0.784 2.464-0.464 2.16-0.16zM16 5.344q1.184 0 2.208 0.448t1.792 1.216 1.216 1.792 0.448 2.208-0.448 2.208-1.216 1.792-1.792 1.216-2.208 0.448-2.208-0.448-1.792-1.216-1.216-1.792-0.448-2.208 0.448-2.208 1.216-1.792 1.792-1.216 2.208-0.448zM16 20.768q-1.6 0-3.152 0.336t-2.768 0.816-1.968 0.976-0.752 0.848v1.568h17.28v-1.568q0-0.352-0.768-0.848t-1.984-0.976-2.768-0.816-3.12-0.336zM16 8.032q-0.608 0-1.152 0.24t-0.944 0.64-0.64 0.944-0.24 1.152v0q0 0.608 0.24 1.152t0.64 0.944 0.944 0.64 1.152 0.24v0q0.608 0 1.152-0.24t0.944-0.64 0.64-0.944 0.24-1.152v0q0-0.608-0.24-1.152t-0.64-0.944-0.944-0.64-1.152-0.24v0z"></path>
</svg>
