<svg version="1.1" fill="currentColor" width="1em" height="1em" viewBox="0 0 32 32" xmlns="http://www.w3.org/2000/svg" xmlns:svg="http://www.w3.org/2000/svg">
  <path d="M 16 5.34375 C 15.210667 5.34375 14.475635 5.4943021 13.792969 5.7929688 C 13.110302 6.0916354 12.512 6.4958125 12 7.0078125 C 11.488 7.5198125 11.08187 8.1181146 10.783203 8.8007812 C 10.484536 9.4834479 10.335938 10.218479 10.335938 11.007812 C 10.335938 11.797146 10.484536 12.53413 10.783203 13.216797 C 11.08187 13.899464 11.488 14.495813 12 15.007812 C 12.512 15.519812 13.110302 15.925943 13.792969 16.224609 C 14.475635 16.523276 15.210667 16.671875 16 16.671875 C 16.789333 16.671875 17.524365 16.523276 18.207031 16.224609 C 18.889698 15.925943 19.488 15.519813 20 15.007812 C 20.512 14.495812 20.91813 13.899464 21.216797 13.216797 C 21.515464 12.53413 21.664063 11.797146 21.664062 11.007812 C 21.664063 10.218479 21.515464 9.4834479 21.216797 8.8007812 C 20.91813 8.1181146 20.512 7.5198125 20 7.0078125 C 19.488 6.4958125 18.889698 6.0916354 18.207031 5.7929688 C 17.524365 5.4943021 16.789333 5.34375 16 5.34375 z " />
  <path d="M 16 18.080078 C 15.36 18.080078 14.639844 18.133568 13.839844 18.240234 C 13.039844 18.346901 12.21962 18.500458 11.376953 18.703125 C 10.534286 18.905792 9.7121094 19.168281 8.9121094 19.488281 C 8.1121094 19.808281 7.3969115 20.175797 6.7675781 20.591797 C 6.1382448 21.007797 5.6320469 21.477333 5.2480469 22 C 4.8640469 22.522667 4.671875 23.104141 4.671875 23.744141 L 4.671875 28 L 27.328125 28 L 27.328125 23.744141 C 27.328125 23.125474 27.135953 22.548958 26.751953 22.015625 C 26.367953 21.482292 25.861755 21.007797 25.232422 20.591797 C 24.603089 20.175797 23.887891 19.808281 23.087891 19.488281 C 22.287891 19.168281 21.465714 18.905792 20.623047 18.703125 C 19.78038 18.500458 18.960156 18.346901 18.160156 18.240234 C 17.360156 18.133568 16.64 18.080078 16 18.080078 z " />
</svg>
