<svg version="1.1" xmlns="http://www.w3.org/2000/svg" fill="currentColor" width="1em" height="1em" viewBox="0 0 32 32">
<path d="M16 2.688q2.752 0 5.168 1.056t4.224 2.864 2.864 4.224 1.056 5.168-1.056 5.168-2.864 4.224-4.224 2.864-5.168 1.056-5.168-1.056-4.224-2.864-2.864-4.224-1.056-5.168 1.056-5.168 2.864-4.224 4.224-2.864 5.168-1.056zM4.032 16q0 1.76 0.496 3.408t1.376 3.040 2.128 2.496 2.752 1.84l-5.728-15.648q-0.48 1.12-0.752 2.336t-0.272 2.528zM16 27.968q2.112 0 3.968-0.672-0.064-0.128-0.064-0.16l-3.68-10.080-3.616 10.432q1.632 0.48 3.392 0.48zM21.984 23.264l1.184-4q0.384-1.248 0.64-2.176t0.256-1.696q0-1.12-0.304-1.904t-0.656-1.392q-0.448-0.736-0.816-1.408t-0.368-1.408q0-0.96 0.624-1.536t1.552-0.576q-1.632-1.472-3.696-2.304t-4.4-0.832q-3.168 0-5.776 1.472t-4.24 3.936q1.024 0 2-0.048t1.968-0.112q0.256 0 0.384 0.144t0.144 0.32-0.080 0.336-0.352 0.192l-0.416 0.032q-0.192 0.032-0.448 0.048t-0.512 0.048l4.352 12.96 2.624-7.872-1.856-5.088q-0.256-0.032-0.48-0.048t-0.416-0.048q-0.192 0-0.384-0.032-0.224 0-0.336-0.16t-0.096-0.352 0.16-0.336 0.368-0.144l1.152 0.064q0.48 0.064 1.008 0.080t0.976 0.016q0.48 0 1.040-0.016t1.040-0.080q0.544-0.032 1.12-0.064 0.256 0 0.384 0.144t0.128 0.32-0.096 0.336-0.352 0.192q-0.192 0.032-0.416 0.032-0.16 0.032-0.416 0.048t-0.512 0.048zM26.496 10.272q0.096 0.512 0.096 1.216 0 0.928-0.192 1.968t-0.736 2.32l-3.648 10.56q1.344-0.768 2.432-1.872t1.872-2.432 1.216-2.848 0.432-3.184q0-1.568-0.384-3.008t-1.088-2.72z"></path>
</svg>
