<svg version="1.1" xmlns="http://www.w3.org/2000/svg" fill="currentColor" width="1em" height="1em" viewBox="0 0 32 32">
<path d="M13.344 20l6.912-4-6.912-4v8zM29.12 12.096q0.064 0.8 0.096 1.488t0.032 1.296l0.096 1.12q0 2.208-0.16 3.808t-0.448 2.624q-0.48 1.824-2.304 2.304-0.576 0.192-1.696 0.288t-2.368 0.144-2.416 0.064-1.84 0.016l-2.112 0.096q-4.224 0-6.816-0.16t-3.616-0.448q-1.824-0.48-2.304-2.304-0.16-0.48-0.256-1.184t-0.16-1.44-0.080-1.456-0.016-1.232l-0.096-1.12q0-2.208 0.16-3.808t0.448-2.624q0.48-1.824 2.304-2.304 0.576-0.192 1.696-0.288t2.368-0.144 2.416-0.064 1.84-0.016l2.112-0.096q4.224 0 6.816 0.16t3.616 0.448q0.864 0.224 1.376 0.72t0.784 1.168 0.384 1.424 0.144 1.52z"></path>
</svg>
